<?xml version="1.0" encoding="UTF-8" standalone="no"?>
<!-- Created with Inkscape (http://www.inkscape.org/) -->

<svg
   width="400"
   height="400"
   viewBox="0 0 105.83334 105.83334"
   version="1.1"
   id="svg5"
   sodipodi:docname="clean-architecture-rings-adapters.svg"
   inkscape:version="1.4.3 (0d15f75042, 2025-12-25)"
   xmlns:inkscape="http://www.inkscape.org/namespaces/inkscape"
   xmlns:sodipodi="http://sodipodi.sourceforge.net/DTD/sodipodi-0.dtd"
   xmlns="http://www.w3.org/2000/svg"
   xmlns:svg="http://www.w3.org/2000/svg">
  <sodipodi:namedview
     id="namedview33"
     pagecolor="#ffffff"
     bordercolor="#666666"
     borderopacity="1.0"
     inkscape:pageshadow="2"
     inkscape:pageopacity="0.0"
     inkscape:pagecheckerboard="0"
     showgrid="false"
     inkscape:zoom="2.075"
     inkscape:cx="200.24096"
     inkscape:cy="200"
     inkscape:window-width="1920"
     inkscape:window-height="1048"
     inkscape:window-x="0"
     inkscape:window-y="8"
     inkscape:window-maximized="1"
     inkscape:current-layer="layer1"
     inkscape:showpageshadow="2"
     inkscape:deskcolor="#d1d1d1" />
  <defs
     id="defs2" />
  <g
     id="layer1"
     transform="translate(-13.229168,-13.229168)"
     style="display:inline">
    <path
       id="circle3511"
       style="display:inline;fill:#1e5a96;fill-opacity:0.2;stroke-width:0.83806;stroke-linecap:round"
       d="m 66.145838,13.229168 a 52.916668,52.916668 0 0 0 -52.91667,52.91667 52.916668,52.916668 0 0 0 52.91667,52.916672 52.916668,52.916668 0 0 0 52.916672,-52.916672 52.916668,52.916668 0 0 0 -52.916672,-52.91667 z m 0,13.229168 A 39.6875,39.6875 0 0 1 105.83334,66.145838 39.6875,39.6875 0 0 1 66.145838,105.83334 39.6875,39.6875 0 0 1 26.458336,66.145838 39.6875,39.6875 0 0 1 66.145838,26.458336 Z" />
    <path
       id="circle18"
       style="display:inline;fill:#f07f4e;fill-opacity:0.2;stroke-width:0.41903;stroke-linecap:round"
       d="M 66.145838,39.687503 A 26.458334,26.458334 0 0 0 39.687503,66.145838 26.458334,26.458334 0 0 0 66.145838,92.604173 26.458334,26.458334 0 0 0 92.604173,66.145838 26.458334,26.458334 0 0 0 66.145838,39.687503 Z m 0,13.229168 A 13.229167,13.229167 0 0 1 79.375006,66.145838 13.229167,13.229167 0 0 1 66.145838,79.375006 13.229167,13.229167 0 0 1 52.916671,66.145838 13.229167,13.229167 0 0 1 66.145838,52.916671 Z" />
    <path
       id="circle13"
       style="display:inline;fill:#45bbc0;fill-opacity:1;stroke-width:0.628545;stroke-linecap:round;stroke:none;stroke-opacity:1"
       d="M 66.145838,26.458336 A 39.6875,39.6875 0 0 0 26.458336,66.145838 39.6875,39.6875 0 0 0 66.145838,105.83334 39.6875,39.6875 0 0 0 105.83334,66.145838 39.6875,39.6875 0 0 0 66.145838,26.458336 Z m 0,13.229167 A 26.458334,26.458334 0 0 1 92.604173,66.145838 26.458334,26.458334 0 0 1 66.145838,92.604173 26.458334,26.458334 0 0 1 39.687503,66.145838 26.458334,26.458334 0 0 1 66.145838,39.687503 Z" />
    <circle
       style="display:inline;fill:#face69;fill-opacity:0.2;stroke-width:0.209515;stroke-linecap:round"
       id="circle15"
       cx="66.145836"
       cy="66.145836"
       r="13.229167" />
  </g>
  <g
     id="g19"
     transform="translate(-13.229168,-13.229168)"
     style="display:inline" />
</svg>
