<?xml version="1.0" encoding="UTF-8" standalone="no"?>
<!-- Generated with Wordclouds.com -->

<svg
   x="0"
   y="0"
   width="914.01001"
   height="697.91998"
   viewBox="0 0 914.01001 697.91998"
   xml:space="preserve"
   version="1.1"
   id="svg14"
   sodipodi:docname="frameworks-wordcloud.svg"
   inkscape:version="1.4.3 (0d15f75042, 2025-12-25)"
   xmlns:inkscape="http://www.inkscape.org/namespaces/inkscape"
   xmlns:sodipodi="http://sodipodi.sourceforge.net/DTD/sodipodi-0.dtd"
   xmlns="http://www.w3.org/2000/svg"
   xmlns:svg="http://www.w3.org/2000/svg"><defs
   id="defs14" /><sodipodi:namedview
   id="namedview14"
   pagecolor="#ffffff"
   bordercolor="#000000"
   borderopacity="0.25"
   inkscape:showpageshadow="2"
   inkscape:pageopacity="0.0"
   inkscape:pagecheckerboard="0"
   inkscape:deskcolor="#d1d1d1"
   showguides="true"
   inkscape:zoom="1.1621094"
   inkscape:cx="489.62689"
   inkscape:cy="314.94454"
   inkscape:window-width="2560"
   inkscape:window-height="1440"
   inkscape:window-x="4480"
   inkscape:window-y="-24"
   inkscape:window-maximized="1"
   inkscape:current-layer="svg14" />
<desc
   id="desc1">Created @ WordClouds.com</desc>



<path
   fill="#46bcc0"
   opacity="1"
   d="m 335.78134,494.57536 -63.01413,50.57528 -85.12672,-106.06338 63.01413,-50.57529 8.13711,10.13841 -52.09584,41.81224 30.2951,37.74609 50.53608,-40.56038 8.2623,10.29439 -50.53608,40.56038 30.29509,37.74609 52.09584,-41.81225 z m 29.47938,-23.66022 -13.88183,11.14158 -3.64594,-53.7493 -51.43605,-14.87995 13.88182,-11.14158 38.31381,12.58937 -3.99918,-40.13037 13.88182,-11.14159 3.52076,53.59333 51.56124,15.03592 -13.88183,11.14159 -38.56418,-12.90132 z m 105.229,-20.34444 -10.91829,8.76304 -86.37858,-107.62314 10.91829,-8.76304 9.38898,11.69816 q -0.23379,-9.55747 3.29731,-18.41813 3.53111,-8.86066 11.95379,-15.62072 v 0 q 9.67049,-7.76156 21.30386,-8.76389 11.63337,-1.00233 22.43239,3.66577 10.79902,4.66811 18.43538,14.18262 v 0 q 7.51118,9.35853 9.79414,20.98987 2.28296,11.63134 -1.2133,22.77209 -3.49626,11.14074 -13.16675,18.9023 v 0 q -5.61512,4.5067 -11.68683,6.68714 -6.07171,2.18045 -12.33424,2.20599 -6.26254,0.0255 -12.51171,-1.37012 v 0 z m -14.63155,-67.75631 v 0 q 7.0189,-5.63339 9.66135,-13.52436 2.64245,-7.89097 1.19266,-16.08781 -1.44979,-8.19684 -6.70762,-14.74781 v 0 q -5.38301,-6.70695 -13.00923,-9.81834 -7.62622,-3.1114 -15.90206,-2.23932 -8.27583,0.87207 -15.29474,6.50546 v 0 q -7.0189,5.63338 -9.66135,13.52435 -2.64245,7.89098 -1.25525,16.00982 1.3872,8.11885 6.77021,14.8258 v 0 q 5.25783,6.55097 12.94664,9.74036 7.68881,3.18938 15.96465,2.3173 8.27584,-0.87207 15.29474,-6.50545 z m 70.68128,-41.34194 -10.91829,8.76304 -55.08199,-68.62925 10.91829,-8.76304 10.76602,13.4139 q -2.60421,-7.39852 -2.59693,-12.6616 0.007,-5.26307 2.21868,-9.21777 2.2114,-3.95471 5.95481,-6.95918 v 0 q 1.71574,-1.37705 3.75983,-2.50474 2.04409,-1.1277 4.22978,-1.59968 v 0 l 11.39195,14.19377 q -3.24875,-0.21349 -5.96496,0.55607 -2.71621,0.76955 -4.89986,2.52216 v 0 q -4.99122,4.00597 -5.83996,10.45729 -0.84873,6.45133 1.52051,13.39732 2.36923,6.94599 7.00113,12.71708 v 0 z m 73.7169,-57.3702 v 0 q -10.29439,8.2623 -22.36287,10.63965 -12.06848,2.37735 -23.66277,-1.52424 -11.59429,-3.90159 -20.23215,-14.6639 v 0 q -8.01193,-9.98244 -9.68637,-21.97395 -1.67445,-11.9915 2.5555,-23.33644 4.22995,-11.34493 14.21239,-19.35686 v 0 q 9.67049,-7.76155 21.66199,-9.436 11.99151,-1.67444 23.36723,2.27435 11.37572,3.94879 19.13728,13.61927 v 0 l 3.50521,4.36732 -64.88583,52.07752 -8.13711,-10.13841 53.34364,-42.81373 q -8.13103,-6.29655 -19.23489,-6.2321 -11.10387,0.0645 -19.99448,7.20007 v 0 q -7.33085,5.88376 -10.11388,13.75934 -2.78303,7.87558 -1.20806,16.22839 1.57498,8.35281 7.45874,15.68366 v 0 q 5.75857,7.17488 13.66494,9.67675 7.90637,2.50187 15.90003,0.9587 7.99366,-1.54318 14.23268,-6.55063 v 0 q 4.83524,-3.88078 8.09229,-8.29004 3.25705,-4.40927 5.01389,-9.40962 1.75684,-5.00035 1.8103,-10.68517 v 0 l 13.77491,0.22805 q 0.0738,7.12141 -2.27316,14.26228 -2.34691,7.14087 -6.4916,13.16014 -4.14468,6.01926 -9.44785,10.2756 z m 71.25207,-55.64838 v 0 q -7.95475,6.38451 -15.52566,8.61417 -7.5709,2.22967 -14.82055,0.22652 -7.24964,-2.00316 -14.13083,-8.02057 v 0 l 11.54219,-9.26379 q 4.87821,3.5218 9.4086,4.37358 4.5304,0.85178 8.68219,-0.68531 4.15179,-1.53708 8.20715,-4.79193 v 0 q 7.48683,-6.00894 8.97689,-11.82097 1.49006,-5.81204 -3.01665,-11.42716 v 0 q -2.62891,-3.27548 -7.28348,-3.64292 -4.65456,-0.36745 -11.49076,2.29835 v 0 q -2.96556,1.09791 -7.22613,2.97875 -4.26057,1.88084 -8.72431,3.6683 -4.46375,1.78746 -8.42877,2.91819 v 0 q -6.71304,1.54115 -12.60306,0.11368 -5.89002,-1.42747 -10.14636,-6.73064 v 0 q -5.63338,-7.0189 -5.89492,-14.37428 -0.26153,-7.35537 3.4604,-14.06114 3.72193,-6.70576 10.11693,-11.8384 v 0 q 9.67048,-7.76155 19.56968,-9.16719 9.8992,-1.40563 20.75151,7.32291 v 0 l -11.69817,9.38898 q -3.97111,-2.71114 -7.53284,-3.31457 -3.56172,-0.60343 -6.97982,0.72946 -3.41809,1.3329 -7.16151,4.33737 v 0 q -4.67926,3.75559 -6.95123,8.91293 -2.27197,5.15734 1.734,10.14856 v 0 q 4.00596,4.99122 9.12744,4.34279 5.12148,-0.64843 9.86638,-2.4051 v 0 q 2.24727,-1.03431 6.44524,-2.99314 4.19798,-1.95882 9.03626,-3.91867 4.83829,-1.95984 8.9285,-2.9346 v 0 q 7.30615,-1.76073 13.21258,0.16647 5.90643,1.9272 10.28796,7.38634 v 0 q 6.13413,7.64281 6.28689,15.34194 0.15275,7.69913 -4.19308,14.90564 -4.34583,7.20651 -11.83266,13.21545 z m 62.70218,-50.32491 v 0 q -7.95476,6.3845 -15.52566,8.61417 -7.5709,2.22967 -14.82055,0.22651 -7.24964,-2.00315 -14.13084,-8.02056 v 0 l 11.5422,-9.26379 q 4.87821,3.5218 9.4086,4.37358 4.53039,0.85177 8.68219,-0.68531 4.15179,-1.53708 8.20715,-4.79193 v 0 q 7.48683,-6.00894 8.97689,-11.82098 1.49006,-5.81203 -3.01665,-11.42715 v 0 q -2.62891,-3.27549 -7.28348,-3.64293 -4.65457,-0.36744 -11.49076,2.29835 v 0 q -2.96557,1.09792 -7.22614,2.97876 -4.26056,1.88084 -8.72431,3.6683 -4.46374,1.78745 -8.42876,2.91819 v 0 q -6.71304,1.54114 -12.60306,0.11368 -5.89002,-1.42747 -10.14636,-6.73064 v 0 q -5.63339,-7.0189 -5.89492,-14.37428 -0.26154,-7.35538 3.4604,-14.06114 3.72193,-6.70576 10.11692,-11.8384 v 0 q 9.67049,-7.76155 19.56969,-9.16719 9.8992,-1.40564 20.75151,7.32291 v 0 l -11.69817,9.38897 q -3.97112,-2.71113 -7.53284,-3.31456 -3.56172,-0.60344 -6.97982,0.72946 -3.4181,1.33289 -7.16151,4.33736 v 0 q -4.67927,3.7556 -6.95123,8.91294 -2.27197,5.15734 1.73399,10.14856 v 0 q 4.00597,4.99121 9.12745,4.34278 5.12147,-0.64843 9.86638,-2.40509 v 0 q 2.24726,-1.03431 6.44524,-2.99314 4.19797,-1.95883 9.03626,-3.91867 4.83829,-1.95984 8.9285,-2.9346 v 0 q 7.30615,-1.76073 13.21258,0.16647 5.90643,1.92719 10.28795,7.38634 v 0 q 6.13414,7.6428 6.28689,15.34194 0.15276,7.69913 -4.19307,14.90564 -4.34583,7.2065 -11.83266,13.21545 z"
   id="path1"
   style="fill:#2c97a6;fill-opacity:1" />
<path
   fill="#61b44b"
   opacity="1"
   d="m 453.68683,493.15977 82.70669,70.9972 -142.45254,-6.29504 q -1.90784,-0.0958 -3.99261,-7.7e-4 -2.07718,0.10151 -3.59804,0.33793 v 0 l 72.89571,62.57524 q 5.47837,4.70275 12.27149,4.78801 6.79204,0.0712 11.49479,-5.4072 v 0 l 1.27474,1.09427 -22.75167,26.50408 -1.27474,-1.09427 q 4.81348,-5.60736 3.70772,-12.30265 -1.10682,-6.70939 -6.71418,-11.52287 v 0 L 382.69675,558.832 q -9.25682,2.01715 -15.36554,7.84374 v 0 l -1.27475,-1.09427 28.1188,-32.7564 107.6131,5.38213 -49.95788,-42.88492 q -5.47837,-4.70275 -12.278,-4.78043 -6.79963,-0.0777 -11.50238,5.40069 v 0 l -1.27475,-1.09426 22.64746,-26.38268 1.27474,1.09427 q -4.70275,5.47837 -3.59592,12.18776 1.10683,6.70939 6.5852,11.41214 z m 116.04644,31.65212 v 0 q -7.54915,8.79423 -17.73741,11.89642 -10.18826,3.1022 -21.17372,0.30112 -10.99957,-2.79999 -20.93955,-11.33268 v 0 q -10.19038,-8.74764 -14.23037,-19.51688 -4.03999,-10.76924 -2.01986,-21.76612 2.02772,-10.99038 10.01328,-20.29299 v 0 q 6.66982,-7.76987 14.92547,-11.19997 8.25565,-3.4301 16.92228,-2.30327 8.65253,1.1279 16.36453,6.85187 v 0 l 2.01633,1.52 -36.7557,42.81779 0.63737,0.54713 q 13.50623,11.59404 26.73395,12.55069 13.24182,0.95557 21.88524,-9.1134 v 0 q 5.24989,-6.11575 7.00757,-14.22765 1.77179,-8.11299 -0.37006,-15.93491 v 0 l 1.36293,-0.82008 q 4.63986,7.75218 5.67569,16.60154 1.02932,8.85694 -1.53141,17.50516 -2.55314,8.65473 -8.78656,15.91623 z m -54.41611,-24.79511 v 0 l 22.20454,-25.86671 q -10.06898,-8.64342 -19.10149,-10.75646 -9.03252,-2.11305 -14.06745,3.75229 v 0 q -4.81348,5.60737 -1.86982,14.55249 2.94367,8.94513 12.83422,18.31839 z m 95.98324,-26.72889 -15.86038,18.47622 -1.27475,-1.09427 q 1.58769,-2.61718 2.37472,-7.92489 v 0 q 0.46243,-4.91422 -1.79444,-14.15279 v 0 l -6.30405,-26.4322 q -5.06148,-0.81288 -10.01115,-1.74065 -4.95726,-0.93428 -9.89625,-1.62885 v 0 q -5.06799,-0.80529 -10.30949,-1.65409 -5.24909,-0.85532 -10.80068,-1.86488 v 0 q -6.5029,-0.93 -9.75599,-0.62544 -3.24551,0.31107 -5.69204,2.63911 v 0 l -1.27474,-1.09427 28.44447,-33.1358 1.27475,1.09427 q -3.24628,4.30368 -0.21158,7.46226 3.04229,3.16508 9.19473,4.24234 v 0 q 4.95726,0.93428 9.5458,1.7761 4.59506,0.83423 9.0622,1.57183 v 0 l -4.6534,-18.82107 q -1.72593,-7.0168 -5.42609,-9.41553 -3.69256,-2.39221 -7.23335,1.21057 v 0 l -1.27475,-1.09427 15.8669,-18.48381 1.27475,1.09427 q -2.68196,3.89193 -3.30615,9.00994 -0.62527,5.10392 1.6316,14.34248 v 0 l 5.40771,22.57886 q 11.47842,2.104 22.63814,3.93444 11.15214,1.82392 24.17726,3.93774 v 0 q 5.30012,0.78052 8.0717,0.39208 2.77157,-0.38843 5.09978,-2.59398 v 0 l 1.27474,1.09427 -28.44447,33.13579 -1.27475,-1.09427 q 3.14314,-4.16817 0.6324,-7.43049 -2.51832,-3.26883 -9.64032,-4.50624 v 0 q -5.80958,-1.23102 -11.2994,-2.17437 -5.49089,-0.95746 -10.92,-1.8487 v 0 l 6.17078,24.77584 q 1.568,6.43315 5.3611,7.81779 3.79961,1.37705 7.87994,-2.86961 v 0 z m 60.09202,-66.39505 v 0 q -5.68629,6.62412 -13.4984,7.21927 -7.81862,0.60273 -14.57173,-5.19429 v 0 l -49.07011,-42.12284 -9.29478,10.82775 -1.65413,-1.41994 q 6.91178,-9.34136 7.90165,-20.55052 0.98986,-11.20915 -3.59503,-22.89424 v 0 l 1.75213,-2.04111 18.35482,15.75617 14.55116,-16.95108 1.19724,3.24182 -13.4569,15.67634 46.26264,39.71283 q 10.19796,8.75415 16.10571,1.87205 v 0 q 1.96708,-2.29151 3.13618,-6.49368 1.16909,-4.20217 1.17034,-8.84014 v 0 l 1.27474,1.09427 q 1.7409,8.79565 -0.0572,17.21556 -1.79912,8.40582 -6.50838,13.89178 z m 31.50582,-36.70205 v 0 q -3.82343,4.45402 -9.74596,4.90522 -5.91495,0.4577 -10.37656,-3.37224 v 0 q -4.71959,-4.0514 -4.93106,-9.9922 -0.21799,-5.93321 3.39049,-10.13683 v 0 q 3.615,-4.21121 9.51276,-4.89454 5.90427,-0.69091 10.62386,3.36049 v 0 q 4.46161,3.82994 4.90522,9.74596 0.45119,5.92253 -3.37875,10.38414 z M 651.75742,267.8411 v 0 q -3.82994,4.46161 -9.46065,4.83384 -5.63829,0.36571 -10.09232,-3.45772 v 0 q -4.5906,-3.94067 -5.01493,-9.51067 -0.42434,-5.57 3.4056,-10.03161 v 0 q 3.82343,-4.45403 9.45206,-4.94665 5.62211,-0.48504 10.21271,3.45563 v 0 q 4.45402,3.82343 4.89454,9.51276 0.42641,5.6904 -3.39701,10.14442 z m 90.71602,110.41178 v 0 l -1.40374,-1.205 q 4.04489,-4.712 2.12227,-11.23869 -1.92913,-6.5191 -9.19822,-12.75904 v 0 l -64.48087,-55.35176 q -4.84859,-4.16213 -9.21299,-4.48206 -4.37851,-0.31886 -9.84334,6.04728 v 0 l -1.27475,-1.09427 11.15764,-12.99785 q 5.79702,-6.75311 7.98127,-10.84824 v 0 q 2.44875,-3.88125 1.36224,-7.25207 v 0 l 0.54714,-0.63737 65.11824,55.8989 q 9.4316,8.09628 13.56245,17.73104 4.12327,9.62824 2.61375,19.50832 -1.50194,9.88658 -9.05109,18.68081 z m 26.72576,-85.298 v 0 q -2.8464,3.31585 -4.51674,4.75504 -1.68444,1.44026 -3.32094,2.57903 -1.64408,1.13225 -3.97229,3.3378 -2.33579,2.19904 -6.60213,7.16903 v 0 l -26.57954,-17.50526 1.41995,-1.65413 q 13.72563,8.2372 24.59415,7.82761 10.86852,-0.40959 16.55481,-7.03371 v 0 q 5.58208,-6.50272 5.8021,-12.17854 0.22762,-5.66931 -4.36298,-9.60999 v 0 q -2.92888,-2.51421 -6.41679,-2.96474 -3.48792,-0.45053 -8.91557,1.09761 -5.42115,1.54055 -13.9793,4.81641 v 0 l -5.21319,1.94311 q -9.9717,3.61756 -18.15889,2.45421 -8.18718,-1.16336 -14.30293,-6.41324 v 0 q -8.66523,-7.43842 -8.2225,-18.0102 0.44925,-10.57938 9.52907,-21.15673 v 0 q 2.29276,-2.67089 3.96961,-4.11767 1.67793,-1.43267 3.37305,-2.63973 1.69619,-1.19295 3.92017,-3.2771 2.22507,-2.07005 5.50787,-5.89428 v 0 l 22.04801,15.82939 -1.31573,1.53273 q -6.6381,-4.38038 -13.53656,-5.75538 -6.89195,-1.38258 -12.57108,-0.0635 -5.67805,1.33319 -8.85013,5.02844 v 0 q -4.15562,4.84099 -4.06823,9.89771 0.0874,5.05671 4.6704,8.99087 v 0 q 3.44485,2.95713 8.228,3.18843 4.78314,0.2313 13.56275,-3.30254 v 0 l 5.19493,-2.18283 q 12.24397,-4.97496 20.71822,-4.79084 8.46774,0.19172 16.24521,6.86806 v 0 q 19.87996,17.06538 -0.43278,41.23492 z"
   id="path2" />
<path
   fill="#238bca"
   opacity="1"
   d="m 204.2,148.6 v 66.01 q 0,11.25 -11.76,11.25 v 0 q -5.71,0 -9.07,-2.85 -3.36,-2.86 -3.36,-8.4 v 0 -66.01 q 0,-15.78 4.2,-25.27 4.2,-9.49 13.77,-13.86 9.58,-4.37 25.53,-4.37 v 0 q 21.17,0 32,9.83 10.83,9.82 10.83,33.67 v 0 66.01 q 0,11.25 -11.76,11.25 v 0 q -5.71,0 -9.07,-2.85 -3.35,-2.86 -3.35,-8.4 v 0 -66.01 q 0,-12.43 -4.29,-17.72 -4.28,-5.29 -14.36,-5.29 v 0 q -7.89,0 -12.09,2.35 -4.2,2.36 -5.71,7.39 -1.51,5.04 -1.51,13.27 z m 96.07,-23.85 v 0 q -6.22,0 -10.41,-4.03 -4.2,-4.03 -4.2,-9.91 v 0 q 0,-6.21 4.2,-10.24 4.19,-4.03 10.41,-4.03 v 0 q 6.38,0 10.5,4.03 4.11,4.03 4.11,10.24 v 0 q 0,5.88 -4.11,9.91 -4.12,4.03 -10.5,4.03 z m 12.09,25.87 v 63.99 q 0,11.25 -11.75,11.25 v 0 q -5.72,0 -9.07,-2.77 -3.36,-2.77 -3.36,-8.48 v 0 -63.99 q 0,-5.38 2.77,-8.4 2.77,-3.02 9.32,-3.02 v 0 q 6.55,0 9.32,3.02 2.77,3.02 2.77,8.4 z m 58.96,75.24 v 0 q -15.62,0 -23.1,-7.39 -7.47,-7.39 -7.47,-22.67 v 0 -34.94 h -4.37 q -11.42,0 -11.42,-10.24 v 0 q 0,-10.08 11.42,-10.08 v 0 h 4.37 V 122.4 q 0,-5.54 3.44,-9.07 3.44,-3.53 8.99,-3.53 v 0 q 5.37,0 8.56,3.28 3.19,3.28 3.19,8.99 v 0 8.23 q 0,6.21 -2.01,10.24 v 0 h 15.95 q 11.43,0 11.43,10.08 v 0 q 0,10.24 -11.43,10.24 v 0 h -13.94 v 35.44 q 0,5.04 1.18,7.14 1.17,2.1 3.86,2.1 v 0 q 3.53,0 5.29,-0.59 1.77,-0.58 4.45,-0.58 v 0 q 4.54,0 7.23,1.59 2.68,1.6 2.68,6.47 v 0 q 0,6.88 -4.36,10.16 -4.37,3.27 -13.94,3.27 z m 42.15,0 v 0 q -12.09,0 -12.09,-11.42 v 0 -63.65 q 0,-11.59 12.09,-11.59 v 0 q 6.05,0 8.74,2.6 2.68,2.6 2.68,8.48 v 0 q 3.03,-5.54 8.65,-8.31 5.63,-2.77 13.19,-2.77 v 0 q 14.44,0 14.44,12.59 v 0 q 0,4.71 -3.52,7.06 -3.53,2.35 -11.59,2.35 v 0 q -7.9,0 -12.43,1.43 -4.54,1.43 -6.3,5.2 -1.76,3.78 -1.76,10.84 v 0 35.77 q 0,11.42 -12.1,11.42 z m 92.38,0 v 0 q -17.97,0 -28.38,-10.24 -10.42,-10.25 -10.42,-33.09 v 0 q 0,-23.01 10.42,-33.17 10.41,-10.16 28.38,-10.16 v 0 q 17.97,0 28.39,10.16 10.41,10.16 10.41,33.17 v 0 q 0,22.84 -10.41,33.09 -10.42,10.24 -28.39,10.24 z m 0,-20.15 v 0 q 4.7,0 7.89,-1.93 3.2,-1.93 4.96,-6.97 1.76,-5.04 1.76,-14.28 v 0 q 0,-9.24 -1.76,-14.28 -1.76,-5.03 -4.96,-6.97 -3.19,-1.93 -7.89,-1.93 v 0 q -4.53,0 -7.81,1.93 -3.27,1.94 -5.04,6.97 -1.76,5.04 -1.76,14.28 v 0 q 0,9.24 1.76,14.28 1.77,5.04 5.04,6.97 3.28,1.93 7.81,1.93 z"
   id="path3"
   style="fill:#1e5a96;fill-opacity:1" />
<path
   fill="#61b44b"
   opacity="1"
   d="m 267.98,96.58 h -9.79 V 1.4 h 4.2 l 49.26,69.98 V 1.4 h 9.8 v 95.04 h -4.2 L 267.98,26.46 Z m 103.3,0.98 v 0 q -9.24,0 -16.87,-3.99 -7.62,-3.99 -12.24,-11.2 -4.62,-7.21 -4.62,-16.86 v 0 q 0,-8.96 4.34,-16.24 4.34,-7.28 11.61,-11.62 7.28,-4.34 16.24,-4.34 v 0 q 8.68,0 15.96,4.34 7.27,4.34 11.75,11.48 4.48,7.14 4.48,15.82 v 0 3.92 h -58.22 v -9.1 h 47.86 q -1.68,-7 -7.76,-11.83 -6.09,-4.83 -14.07,-4.83 v 0 q -6.58,0 -11.55,3.08 -4.97,3.08 -7.77,8.33 -2.8,5.25 -2.8,11.83 v 0 q 0,6.43 3.22,11.26 3.22,4.83 8.26,7.49 5.04,2.66 10.64,2.66 v 0 q 4.34,0 8.05,-0.98 3.71,-0.98 6.86,-2.94 3.15,-1.96 5.66,-5.04 v 0 l 7.42,6.16 q -3.08,3.92 -7.49,6.79 -4.4,2.87 -9.3,4.34 -4.9,1.47 -9.66,1.47 z m 63.26,0.84 v 0 q -7.13,0 -12.24,-2.1 -5.11,-2.1 -8.19,-6.37 -3.08,-4.27 -4.2,-10.57 v 0 h 10.36 q 1.12,4.06 3.22,6.51 2.1,2.45 5.03,3.43 2.94,0.98 6.58,0.98 v 0 q 6.72,0 10.08,-2.52 3.36,-2.52 3.36,-7.56 v 0 q 0,-2.94 -2.38,-5.18 -2.38,-2.24 -7.28,-3.78 v 0 q -2.1,-0.7 -5.25,-1.54 -3.15,-0.83 -6.36,-1.81 -3.22,-0.98 -5.88,-2.1 v 0 q -4.34,-2.1 -6.93,-5.46 -2.59,-3.36 -2.59,-8.12 v 0 q 0,-6.3 3.08,-10.43 3.08,-4.13 8.05,-6.16 4.97,-2.03 10.7,-2.03 v 0 q 8.68,0 14.7,3.57 6.02,3.57 8.12,13.09 v 0 h -10.5 q -0.98,-3.22 -2.66,-5.11 -1.68,-1.89 -4.13,-2.66 -2.45,-0.77 -5.81,-0.77 v 0 q -4.2,0 -7.69,1.82 -3.5,1.82 -3.5,6.3 v 0 q 0,4.48 3.08,6.37 3.07,1.89 6.43,3.01 v 0 q 1.68,0.42 4.83,1.19 3.15,0.77 6.65,1.82 3.5,1.05 6.16,2.31 v 0 q 4.76,2.24 7.14,5.87 2.38,3.64 2.38,8.54 v 0 q 0,6.86 -3.29,11.13 -3.29,4.27 -8.82,6.3 -5.53,2.03 -12.25,2.03 z m 55.15,-1.82 h -9.8 V 44.09 H 464.5 v -9.1 h 15.39 V 11.06 h 9.8 v 23.93 h 15.26 v 9.1 h -15.26 z m 40.87,1.12 v 0 q -2.66,0 -5.25,-0.84 -2.59,-0.84 -4.83,-2.17 -2.24,-1.33 -4.2,-3.08 -1.96,-1.75 -3.64,-3.57 v 0 l 5.74,-8.12 q 1.26,1.54 3.36,3.5 2.1,1.96 4.48,3.29 2.38,1.33 4.48,1.33 v 0 q 3.08,0 5.46,-0.91 2.38,-0.91 4.06,-2.8 1.68,-1.89 2.52,-4.76 0.84,-2.87 0.84,-6.79 v 0 V 1.4 h 9.79 v 71.38 q 0,8.54 -3.15,14.07 -3.14,5.53 -8.32,8.19 -5.18,2.66 -11.34,2.66 z m 73.06,0.7 v 0 q -7.98,0 -14.21,-1.47 -6.22,-1.47 -10.77,-4.48 -4.55,-3.01 -7.49,-7.56 -2.94,-4.55 -4.2,-10.57 v 0 h 11.62 q 0.98,5.04 3.99,8.4 3.01,3.36 8.25,5.04 5.25,1.68 12.81,1.68 v 0 q 6.72,0 12.32,-1.75 5.6,-1.75 9.03,-5.81 3.43,-4.06 3.43,-10.78 v 0 q 0,-4.61 -3.01,-7.9 -3.01,-3.29 -7.7,-5.46 -4.69,-2.17 -9.73,-3.64 -5.04,-1.47 -9.24,-2.45 v 0 q -7.28,-1.68 -12.73,-4.06 -5.46,-2.38 -9.1,-5.53 -3.64,-3.15 -5.46,-6.93 -1.82,-3.78 -1.82,-8.39 v 0 q 0,-6.72 2.45,-11.76 2.45,-5.04 6.79,-8.4 4.34,-3.36 10.08,-4.97 Q 594.66,0 601.1,0 v 0 q 7,0 12.46,1.26 5.46,1.26 9.59,3.85 4.13,2.59 6.85,6.51 2.73,3.92 3.99,9.1 v 0 h -10.63 q -1.4,-6.16 -6.93,-9.24 Q 610.9,8.4 601.1,8.4 v 0 q -5.88,0 -10.78,1.68 -4.89,1.68 -7.76,5.18 -2.87,3.5 -2.87,8.96 v 0 q 0,4.89 2.8,8.25 2.8,3.36 7.13,5.46 4.34,2.1 9.31,3.5 4.97,1.4 9.31,2.52 v 0 q 6.16,1.54 11.62,3.57 5.46,2.03 9.66,4.97 4.19,2.94 6.57,7.28 2.38,4.34 2.38,10.63 v 0 q 0,7.42 -2.87,12.74 -2.87,5.32 -7.83,8.68 -4.97,3.36 -11.2,4.97 -6.23,1.61 -12.95,1.61 z"
   id="path4" />
<path
   fill="#46bcc0"
   opacity="1"
   d="M 115.93,328.33 H 80.1 l 0.22,-1.12 h 0.34 q 4.03,0 6.49,-2.46 2.47,-2.47 2.47,-6.5 v 0 -63.82 q 0,-4.03 -2.47,-6.5 -2.46,-2.46 -6.49,-2.46 v 0 l -0.11,-1.12 h 59.9 l 3.36,22.62 H 142.8 Q 139.44,245.8 116.15,245.8 v 0 h -9.29 v 33.71 h 8.73 q 5.6,0 8.96,-3.53 3.36,-3.53 3.36,-9.12 v 0 h 1.12 v 27.99 h -1.12 q 0,-6.05 -3.7,-9.97 -3.69,-3.92 -9.74,-3.92 v 0 h -7.61 v 38.19 q 0,3.69 2.57,5.88 2.58,2.18 6.39,2.18 v 0 z m 35.38,1.57 v 0 q -6.83,0 -10.97,-3.7 -4.14,-3.69 -4.14,-9.74 v 0 q 0,-2.58 0.89,-4.87 0.9,-2.3 3.36,-4.54 v 0 q 2.58,-2.24 7.06,-4.64 4.47,-2.41 11.86,-5.1 v 0 l 10.42,-3.81 v -8.39 q 0,-6.39 -2.02,-10.14 -2.01,-3.75 -5.6,-3.75 v 0 q -4.25,0.11 -7.22,5.6 -2.97,5.49 -3.97,15.23 v 0 l -12.1,-6.94 q 1.91,-4.59 5.83,-8.06 3.91,-3.48 9.01,-5.38 5.09,-1.9 10.69,-1.9 v 0 q 9.52,0 15.51,5.32 5.99,5.31 5.99,14.5 v 0 26.98 q 0,6.5 4.37,6.5 v 0 q 2.57,0 5.04,-2.8 v 0 l 0.89,0.78 q -2.91,3.92 -7.05,6.38 -4.14,2.47 -8.06,2.47 v 0 q -4.26,0 -7.34,-2.92 -3.08,-2.91 -3.86,-7.72 v 0 q -5.49,5.6 -9.57,8.12 -4.09,2.52 -9.02,2.52 z m 8.4,-6.95 v 0 q 2.46,0 4.76,-1.23 2.29,-1.23 5.21,-4.03 v 0 l 0.11,-22.73 -4.48,1.68 q -5.71,2.13 -8.74,4.31 -3.02,2.18 -4.19,4.87 -1.18,2.69 -1.18,6.16 v 0 q 0,4.82 2.41,7.89 2.4,3.08 6.1,3.08 z m 57.55,6.95 v 0 q -2.91,0 -4.36,-0.23 -1.46,-0.22 -2.75,-0.56 -1.28,-0.33 -3.41,-0.56 -2.13,-0.22 -6.5,-0.22 v 0 l -2.68,-21.05 h 1.45 q 1.79,10.52 6.72,15.84 4.93,5.32 10.75,5.32 v 0 q 5.71,0 8.68,-2.35 2.97,-2.35 2.97,-6.38 v 0 q 0,-2.58 -1.29,-4.54 -1.29,-1.96 -4.43,-4.03 -3.13,-2.07 -8.51,-4.98 v 0 l -3.24,-1.79 q -6.16,-3.47 -9.13,-8.12 -2.97,-4.65 -2.97,-10.02 v 0 q 0,-7.62 5.55,-11.98 5.54,-4.37 14.83,-4.37 v 0 q 2.35,0 3.81,0.22 1.46,0.23 2.8,0.56 1.34,0.34 3.36,0.56 2.01,0.23 5.37,0.23 v 0 l 1.57,18.02 h -1.34 q -0.67,-5.26 -2.97,-9.35 -2.3,-4.08 -5.43,-6.38 -3.14,-2.29 -6.38,-2.29 v 0 q -4.26,0 -6.78,2.24 -2.52,2.24 -2.52,6.27 v 0 q 0,3.02 1.96,5.54 1.96,2.52 7.56,5.43 v 0 l 3.36,1.68 q 7.84,4.03 11.42,8.4 3.58,4.36 3.58,11.19 v 0 q 0,17.47 -21.05,17.7 z m 44.12,0 v 0 q -5.82,0 -9.52,-3.7 -3.69,-3.69 -3.69,-9.63 v 0 -43.11 h -9.52 v -1.45 q 7.73,-0.56 13.83,-4.93 6.1,-4.37 10.02,-11.76 v 0 h 1.79 v 16.13 h 14.89 l -1.12,2.01 h -13.77 v 40.65 q 0,8.96 6.05,8.96 v 0 q 2.01,0 4.65,-1.24 2.63,-1.23 4.98,-3.24 v 0 1.12 q -3.7,4.7 -8.74,7.44 -5.03,2.75 -9.85,2.75 z m 51.73,-1.57 h -34.26 v -1.12 h 0.11 q 4.03,0 6.49,-2.46 2.47,-2.47 2.47,-6.5 v 0 -36.73 q 0,-4.25 -1.74,-6.6 -1.73,-2.35 -7.33,-2.35 v 0 -1.12 h 11.42 q 5.71,0 8.73,-1.24 v 0 q 2.8,-1.23 3.92,-3.02 v 0 h 1.12 v 51.06 q 0,4.03 2.47,6.5 2.46,2.46 6.49,2.46 v 0 h 0.11 z m -17.24,-68.19 v 0 q -4.03,0 -6.66,-2.63 -2.64,-2.64 -2.64,-6.67 v 0 q 0,-4.03 2.64,-6.66 2.63,-2.63 6.66,-2.63 v 0 q 3.92,0 6.55,2.69 2.63,2.68 2.63,6.6 v 0 q 0,3.92 -2.63,6.61 -2.63,2.69 -6.55,2.69 z m 51.95,68.19 h -36.5 v -1.12 q 4.03,0 6.55,-2.46 2.52,-2.47 2.52,-6.5 v 0 -44.79 h -9.52 l 1.12,-2.01 h 8.4 v -2.58 q 0,-8.51 2.86,-14.72 2.85,-6.22 8.11,-9.69 5.27,-3.47 12.43,-3.47 v 0 q 4.93,0 9.35,1.51 4.42,1.51 7.62,4.14 3.19,2.64 4.53,6.11 v 0 l -13.44,7.61 q -0.11,-4.03 -0.61,-7.28 -0.51,-3.24 -1.63,-5.71 v 0 q -2.23,-4.92 -5.71,-4.92 v 0 q -3.58,0 -5.37,5.48 v 0 q -2.02,5.49 -2.02,15.01 v 0 8.51 h 15.12 l -1.12,2.01 h -14 v 44.79 q 0,4.03 3.08,6.5 3.08,2.46 8.12,2.46 v 0 h 0.11 z m -0.22,25.08 v 0 q -4.59,0 -8.85,-1.79 v 0 l 4.37,-13.1 q 2.8,1.12 6.1,1.9 3.31,0.79 6.67,0.79 v 0 q 4.25,0 8,-1.74 3.75,-1.74 5.66,-6.44 v 0 l 1.23,-3.02 -22.17,-51.4 q -1.12,-2.68 -2.97,-4.31 -1.85,-1.62 -5.09,-1.73 v 0 -1.12 h 32.36 v 1.12 q -3.03,0.33 -4.65,2.12 -1.63,1.8 -1.63,4.59 v 0 q 0,2.47 1.12,5.04 v 0 l 11.31,26.54 11.31,-26.54 q 1.12,-2.57 1.12,-5.04 v 0 q 0,-2.79 -1.62,-4.59 -1.62,-1.79 -4.76,-2.12 v 0 -1.12 h 15.45 v 1.12 q -2.57,0.56 -4.36,3.3 -1.8,2.74 -3.81,7.45 v 0 l -22.84,53.07 q -3.59,8.29 -9.3,12.65 -5.71,4.37 -12.65,4.37 z"
   id="path5"
   style="fill:#69b978;fill-opacity:1" />
<path
   fill="#69b978"
   opacity="1"
   d="m 282.12,696.46 h -8.51 l 31.35,-76.14 h 4.25 l 31.24,76.14 h -8.51 l -8.17,-20.71 h -33.48 z m 24.97,-63.04 -13.89,35.05 h 27.66 z m 60.12,64.16 v 0 q -6.94,0 -12.37,-3.64 -5.43,-3.64 -8.51,-9.52 -3.08,-5.87 -3.08,-12.59 v 0 q 0,-6.83 3.08,-12.65 3.08,-5.83 8.51,-9.47 5.43,-3.64 12.37,-3.64 v 0 q 6.05,0 10.87,2.47 4.81,2.46 7.72,7.05 v 0 -43.11 h 7.84 v 83.98 h -7.84 v -8.4 q -2.13,2.8 -4.92,4.99 -2.8,2.18 -6.22,3.36 -3.41,1.17 -7.45,1.17 z m 1.24,-7.84 v 0 q 5.04,0 8.95,-2.52 3.92,-2.52 6.16,-6.6 2.24,-4.09 2.24,-8.79 v 0 q 0,-4.82 -2.24,-8.85 -2.24,-4.03 -6.16,-6.55 -3.91,-2.52 -8.95,-2.52 v 0 q -5.04,0 -8.96,2.52 -3.92,2.52 -6.16,6.55 -2.24,4.03 -2.24,8.85 v 0 q 0,4.7 2.24,8.79 2.24,4.08 6.16,6.6 3.92,2.52 8.96,2.52 z m 63.26,7.51 v 0 q -7.05,0 -12.93,-3.42 -5.88,-3.41 -9.35,-9.24 -3.47,-5.82 -3.47,-12.99 v 0 q 0,-7.16 3.47,-12.98 3.47,-5.83 9.29,-9.3 5.82,-3.47 12.99,-3.47 v 0 q 7.17,0 12.99,3.47 5.82,3.47 9.29,9.3 3.47,5.82 3.47,12.98 v 0 q 0,7.17 -3.47,12.99 -3.47,5.83 -9.35,9.24 -5.87,3.42 -12.93,3.42 z m 0,-7.84 v 0 q 4.93,0 9.01,-2.41 4.09,-2.41 6.5,-6.44 2.41,-4.03 2.41,-8.96 v 0 q 0,-5.03 -2.41,-9.07 -2.41,-4.03 -6.44,-6.43 -4.03,-2.41 -9.07,-2.41 v 0 q -4.93,0 -9.01,2.41 -4.09,2.4 -6.5,6.43 -2.4,4.04 -2.4,9.07 v 0 q 0,4.93 2.4,8.96 2.41,4.03 6.5,6.44 4.08,2.41 9.01,2.41 z m 45.91,7.05 h -7.84 v -49.27 h 7.84 v 8.51 q 2.35,-4.03 6.38,-6.77 4.03,-2.74 9.52,-2.74 v 0 q 5.82,0 9.85,2.29 4.03,2.3 6.16,6.61 2.13,4.31 2.13,10.58 v 0 30.79 h -7.84 v -30.79 q 0,-2.91 -0.84,-5.6 -0.84,-2.69 -2.91,-4.37 -2.07,-1.68 -5.65,-1.68 v 0 q -6.05,0 -9.75,2.92 -3.69,2.91 -5.37,7.89 -1.68,4.98 -1.68,11.03 v 0 z m 57.55,0 h -7.83 v -49.27 h 7.83 z m -3.92,-57.78 v 0 q -2.12,0 -3.58,-1.45 -1.45,-1.46 -1.45,-3.58 v 0 q 0,-2.02 1.45,-3.48 1.46,-1.45 3.58,-1.45 v 0 q 2.02,0 3.48,1.45 1.45,1.46 1.45,3.48 v 0 q 0,2.12 -1.45,3.58 -1.46,1.45 -3.48,1.45 z m 35.5,59.24 v 0 q -5.71,0 -9.8,-1.68 -4.09,-1.68 -6.55,-5.1 -2.46,-3.41 -3.36,-8.45 v 0 h 8.29 q 0.89,3.25 2.57,5.21 1.68,1.96 4.03,2.74 2.36,0.78 5.27,0.78 v 0 q 5.37,0 8.06,-2.01 2.69,-2.02 2.69,-6.05 v 0 q 0,-2.35 -1.91,-4.14 -1.9,-1.79 -5.82,-3.03 v 0 q -1.68,-0.56 -4.2,-1.23 -2.52,-0.67 -5.09,-1.45 -2.58,-0.79 -4.71,-1.68 v 0 q -3.47,-1.68 -5.54,-4.37 -2.07,-2.69 -2.07,-6.49 v 0 q 0,-5.04 2.46,-8.35 2.47,-3.3 6.44,-4.92 3.98,-1.63 8.57,-1.63 v 0 q 6.94,0 11.75,2.86 4.82,2.85 6.5,10.47 v 0 h -8.4 q -0.78,-2.58 -2.13,-4.09 -1.34,-1.51 -3.3,-2.13 -1.96,-0.61 -4.65,-0.61 v 0 q -3.36,0 -6.15,1.45 -2.8,1.46 -2.8,5.04 v 0 q 0,3.59 2.46,5.1 2.46,1.51 5.15,2.41 v 0 q 1.34,0.33 3.86,0.95 2.52,0.61 5.32,1.45 2.8,0.84 4.93,1.85 v 0 q 3.81,1.79 5.71,4.7 1.9,2.91 1.9,6.83 v 0 q 0,5.49 -2.63,8.91 -2.63,3.41 -7.05,5.03 -4.43,1.63 -9.8,1.63 z m 39.97,-0.56 v 0 q -2.12,0 -4.2,-0.67 -2.07,-0.68 -3.86,-1.74 -1.79,-1.06 -3.36,-2.46 -1.57,-1.4 -2.91,-2.86 v 0 l 4.59,-6.49 q 1.01,1.23 2.69,2.8 1.68,1.56 3.58,2.63 1.91,1.06 3.59,1.06 v 0 q 2.46,0 4.36,-0.73 1.91,-0.72 3.25,-2.24 1.34,-1.51 2.01,-3.8 0.68,-2.3 0.68,-5.43 v 0 -57.11 h 7.83 v 57.11 q 0,6.83 -2.51,11.25 -2.52,4.42 -6.67,6.55 -4.14,2.13 -9.07,2.13 z m 58.45,0.56 v 0 q -6.38,0 -11.36,-1.18 -4.99,-1.17 -8.62,-3.58 -3.64,-2.41 -5.99,-6.05 -2.36,-3.64 -3.36,-8.45 v 0 h 9.29 q 0.78,4.03 3.19,6.72 2.41,2.68 6.61,4.03 4.2,1.34 10.24,1.34 v 0 q 5.38,0 9.86,-1.4 4.48,-1.4 7.22,-4.65 2.74,-3.24 2.74,-8.62 v 0 q 0,-3.69 -2.41,-6.32 -2.4,-2.63 -6.15,-4.37 -3.75,-1.74 -7.79,-2.91 -4.03,-1.18 -7.39,-1.96 v 0 q -5.82,-1.34 -10.19,-3.25 -4.36,-1.9 -7.27,-4.42 -2.92,-2.52 -4.37,-5.54 -1.46,-3.03 -1.46,-6.72 v 0 q 0,-5.38 1.96,-9.41 1.96,-4.03 5.43,-6.72 3.47,-2.68 8.07,-3.97 4.59,-1.29 9.74,-1.29 v 0 q 5.6,0 9.96,1.01 4.37,1.01 7.67,3.08 3.31,2.07 5.49,5.2 2.18,3.14 3.19,7.28 v 0 h -8.51 q -1.12,-4.92 -5.54,-7.39 -4.42,-2.46 -12.26,-2.46 v 0 q -4.71,0 -8.62,1.34 -3.92,1.35 -6.22,4.15 -2.29,2.8 -2.29,7.16 v 0 q 0,3.92 2.24,6.61 2.23,2.69 5.71,4.37 3.47,1.67 7.44,2.79 3.98,1.12 7.45,2.02 v 0 q 4.92,1.23 9.29,2.86 4.37,1.62 7.73,3.97 3.36,2.35 5.26,5.82 1.9,3.47 1.9,8.51 v 0 q 0,5.94 -2.29,10.19 -2.3,4.26 -6.27,6.94 -3.98,2.69 -8.96,3.98 -4.98,1.29 -10.36,1.29 z"
   id="path6" />
<path
   fill="#2c97a6"
   opacity="1"
   d="m 628.93,537.09 v 0 q -3.8,0 -6.04,-1.74 -2.24,-1.74 -2.24,-4.98 v 0 V 482 q 0,-12.99 6.88,-19.1 6.89,-6.1 21.56,-6.1 v 0 q 11.98,0 18.3,5.99 6.33,5.99 6.33,17.3 v 0 q 0,3.92 -0.22,7.56 -0.23,3.64 -0.67,5.09 v 0 q -1.68,6.16 -6.16,9.41 v 0 q 6.04,5.04 6.04,11.65 v 0 16.57 q 0,6.94 -7.72,6.94 v 0 q -3.81,0 -6.05,-1.74 -2.24,-1.73 -2.24,-5.2 v 0 -14.78 q 0,-6.05 -1.85,-8.51 -1.84,-2.47 -7.44,-2.47 v 0 q -6.05,0 -8.34,2.63 -2.3,2.64 -2.3,9.69 v 0 13.44 q 0,6.72 -7.84,6.72 z m 6.94,-41.66 v 0 q 2.8,-2.35 4.99,-3.08 2.18,-0.73 6.32,-0.73 v 0 q 5.6,0 8.23,-0.56 2.64,-0.56 3.42,-2.35 0.78,-1.79 0.78,-5.6 v 0 q 0,-7.61 -2.29,-10.58 -2.3,-2.96 -8.23,-2.96 v 0 q -6.61,0 -9.35,3.02 -2.75,3.02 -2.75,10.52 v 0 q 0,3.7 -0.28,6.56 -0.28,2.85 -0.84,5.76 z m 76.26,41.88 v 0 q -11.2,0 -17.53,-3.7 -6.32,-3.69 -8.95,-10.19 -2.64,-6.49 -2.64,-14.89 v 0 q 0,-15.45 6.84,-22.22 6.83,-6.78 18.36,-6.78 v 0 q 6.94,0 12.32,2.35 5.37,2.35 8.39,6.67 3.03,4.31 3.03,10.46 v 0 q 0,17.92 -25.53,17.92 v 0 h -6.5 q 0.9,3.47 2.97,5.43 2.07,1.96 7.33,1.96 v 0 q 2.92,0 4.71,-0.34 1.79,-0.33 3.41,-0.67 1.63,-0.33 3.75,-0.33 v 0 q 3.03,0 4.82,1.06 1.79,1.06 1.79,4.31 v 0 q 0,4.59 -3.98,6.78 -3.97,2.18 -12.59,2.18 z m -12.99,-28.67 v 0 q 0.89,-1.23 2.01,-1.62 1.12,-0.39 3.48,-0.39 v 0 q 6.6,0 9.12,-1.29 2.52,-1.29 2.52,-4.65 v 0 q 0,-4.25 -2.35,-6.55 -2.35,-2.29 -5.94,-2.29 v 0 q -4.14,0 -6.49,3.47 -2.35,3.47 -2.35,13.32 z m 50.83,28.67 v 0 q -8.06,0 -8.06,-7.61 v 0 -26.88 q 0,-11.42 5.43,-17.35 5.43,-5.94 15.62,-5.94 v 0 q 13.89,0 18.81,9.97 v 0 q 4.93,-9.97 18.82,-9.97 v 0 q 10.19,0 15.62,5.94 5.43,5.93 5.43,17.35 v 0 26.88 q 0,7.61 -8.07,7.61 v 0 q -8.06,0 -8.06,-7.61 v 0 -25.98 q 0,-5.71 -1.9,-8.23 -1.9,-2.52 -5.94,-2.52 v 0 q -8.06,0 -8.06,10.75 v 0 25.53 q 0,7.61 -7.84,7.61 v 0 q -7.83,0 -7.83,-7.61 v 0 -25.53 q 0,-10.75 -8.07,-10.75 v 0 q -7.83,0 -7.83,10.75 v 0 25.98 q 0,7.61 -8.07,7.61 z m 93.61,-67.41 v 0 q -4.14,0 -6.94,-2.69 -2.8,-2.68 -2.8,-6.6 v 0 q 0,-4.14 2.8,-6.83 2.8,-2.69 6.94,-2.69 v 0 q 4.26,0 7,2.69 2.74,2.69 2.74,6.83 v 0 q 0,3.92 -2.74,6.6 -2.74,2.69 -7,2.69 z m 8.07,17.25 v 42.66 q 0,7.5 -7.84,7.5 v 0 q -3.81,0 -6.05,-1.85 -2.24,-1.85 -2.24,-5.65 v 0 -42.66 q 0,-3.59 1.85,-5.6 1.85,-2.02 6.21,-2.02 v 0 q 4.37,0 6.22,2.02 1.85,2.01 1.85,5.6 z m 20.49,50.16 v 0 q -1.8,0 -3.87,-0.73 -2.07,-0.73 -3.58,-2.41 -1.51,-1.68 -1.51,-4.25 v 0 q 0,-4.03 3.86,-9.8 3.86,-5.77 10.58,-12.15 v 0 l -11.87,-15.23 q -0.78,-1.12 -1.51,-2.52 -0.73,-1.39 -0.73,-2.85 v 0 q 0,-1.57 0.73,-3.19 0.73,-1.63 2.52,-3.19 v 0 q 1.23,-1.01 2.46,-1.4 1.24,-0.39 2.36,-0.39 v 0 q 2.12,0 3.86,0.95 1.73,0.95 2.63,2.18 v 0 l 11.76,15.01 q 2.57,-3.03 4.53,-6.39 1.96,-3.36 3.19,-6.16 v 0 q 1.12,-2.57 2.91,-4.08 1.8,-1.51 4.26,-1.51 v 0 q 3.36,0 6.05,1.96 2.68,1.95 2.68,5.87 v 0 q 0,4.15 -3.41,9.52 -3.42,5.38 -10.47,12.21 v 0 l 12.32,15.11 q 0.89,1.01 1.51,2.41 0.61,1.4 0.61,2.97 v 0 q 0,1.45 -0.72,3.08 -0.73,1.62 -2.41,3.19 v 0 q -1.12,1.01 -2.35,1.4 -1.23,0.39 -2.47,0.39 v 0 q -2.12,0 -3.8,-1.01 -1.68,-1.01 -2.69,-2.13 v 0 l -12.43,-15.22 q -2.35,2.8 -4.65,6.6 -2.29,3.81 -3.86,7.17 v 0 q -1.01,2.24 -2.52,3.41 -1.51,1.18 -3.97,1.18 z"
   id="path7"
   style="fill:#238bca;fill-opacity:1" />
<path
   fill="#1e5a96"
   opacity="1"
   d="m 126.4,607.73 v 14.22 q 0,7.5 -7.84,7.5 v 0 q -3.81,0 -6.05,-1.9 -2.24,-1.9 -2.24,-5.6 v 0 -44.34 q 0,-15.45 6.27,-22.06 6.28,-6.6 19.6,-6.6 v 0 q 13.66,0 20.15,6.71 6.5,6.72 6.5,21.95 v 0 44.34 q 0,7.5 -7.84,7.5 v 0 q -3.81,0 -6.05,-1.9 -2.23,-1.9 -2.23,-5.6 v 0 -26.98 q -2.13,1.9 -4.65,3.24 -2.52,1.35 -5.88,1.35 v 0 q -4.93,0 -7.33,1.79 -2.41,1.79 -2.41,6.38 z m -0.67,-18.59 v 0 q 1.79,-1.79 4.31,-2.8 2.52,-1 6.1,-1 v 0 q 4.25,0 6.55,-0.67 2.3,-0.68 3.19,-2.58 0.9,-1.9 0.9,-5.6 v 0 q 0,-8.28 -2.35,-11.36 -2.36,-3.08 -8.4,-3.08 v 0 q -5.6,0 -7.67,3.19 -2.07,3.19 -2.07,11.7 v 0 q 0,4.37 -0.12,7.39 -0.11,3.02 -0.44,4.81 z m 69.87,40.31 v 0 q -21.05,0 -21.05,-9.29 v 0 q 0,-2.91 1.56,-4.59 1.57,-1.68 4.15,-1.68 v 0 q 1.12,0 2.18,0.28 1.06,0.28 4.2,1.29 v 0 q 1.34,0.45 3.58,0.89 2.24,0.45 4.37,0.45 v 0 q 4.03,0 5.71,-1.01 1.68,-1 1.68,-3.36 v 0 q 0,-1.9 -0.9,-2.96 -0.89,-1.07 -3.8,-2.07 -2.91,-1.01 -9.07,-2.8 v 0 q -5.6,-1.57 -9.02,-5.66 -3.41,-4.09 -3.41,-10.13 v 0 q 0,-8.51 6.16,-12.99 6.15,-4.48 16.9,-4.48 v 0 q 8.07,0 12.66,2.24 4.59,2.24 4.59,6.49 v 0 q 0,2.69 -1.57,4.48 -1.57,1.79 -4.25,1.79 v 0 q -1.12,0 -2.64,-0.33 -1.51,-0.34 -3.63,-0.9 v 0 q -1.57,-0.56 -3.31,-0.89 -1.73,-0.34 -3.64,-0.34 v 0 q -5.37,0 -5.37,3.81 v 0 q 0,2.24 2.13,3.75 2.12,1.51 8.17,3.3 v 0 q 8.29,2.47 12.2,6.55 3.92,4.09 3.92,10.81 v 0 q 0,7.84 -5.99,12.6 -5.99,4.75 -16.51,4.75 z m 59.23,0 v 0 q -10.41,0 -15.4,-4.92 -4.98,-4.93 -4.98,-15.12 v 0 -23.29 h -2.91 q -7.61,0 -7.61,-6.83 v 0 q 0,-6.72 7.61,-6.72 v 0 h 2.91 v -12.09 q 0,-3.7 2.3,-6.05 2.29,-2.35 5.99,-2.35 v 0 q 3.58,0 5.71,2.18 2.13,2.19 2.13,6 v 0 5.48 q 0,4.14 -1.35,6.83 v 0 h 10.64 q 7.61,0 7.61,6.72 v 0 q 0,6.83 -7.61,6.83 v 0 h -9.29 v 23.63 q 0,3.36 0.78,4.76 0.78,1.4 2.57,1.4 v 0 q 2.36,0 3.53,-0.4 1.18,-0.39 2.97,-0.39 v 0 q 3.02,0 4.81,1.07 1.8,1.06 1.8,4.31 v 0 q 0,4.59 -2.92,6.77 -2.91,2.18 -9.29,2.18 z m 28.11,0 v 0 q -8.07,0 -8.07,-7.61 v 0 -42.44 q 0,-7.72 8.07,-7.72 v 0 q 4.03,0 5.82,1.73 1.79,1.74 1.79,5.66 v 0 q 2.02,-3.7 5.77,-5.55 3.75,-1.84 8.79,-1.84 v 0 q 9.63,0 9.63,8.39 v 0 q 0,3.14 -2.36,4.71 -2.35,1.56 -7.72,1.56 v 0 q -5.26,0 -8.29,0.96 -3.02,0.95 -4.2,3.47 -1.17,2.52 -1.17,7.22 v 0 23.85 q 0,7.61 -8.06,7.61 z m 61.58,0 v 0 q -11.98,0 -18.92,-6.83 -6.95,-6.83 -6.95,-22.05 v 0 q 0,-15.35 6.95,-22.12 6.94,-6.77 18.92,-6.77 v 0 q 11.98,0 18.92,6.77 6.95,6.77 6.95,22.12 v 0 q 0,15.22 -6.95,22.05 -6.94,6.83 -18.92,6.83 z m 0,-13.43 v 0 q 3.14,0 5.26,-1.29 2.13,-1.29 3.31,-4.65 1.17,-3.36 1.17,-9.51 v 0 q 0,-6.16 -1.17,-9.52 -1.18,-3.36 -3.31,-4.65 -2.12,-1.29 -5.26,-1.29 v 0 q -3.02,0 -5.21,1.29 -2.18,1.29 -3.36,4.65 -1.17,3.36 -1.17,9.52 v 0 q 0,6.15 1.17,9.51 1.18,3.36 3.36,4.65 2.19,1.29 5.21,1.29 z"
   id="path8"
   style="fill:#238bca;fill-opacity:1" />
<path
   fill="#46bcc0"
   opacity="1"
   d="m 8.29,399.45 v 0 Q 0,399.45 0,391.95 v 0 -65.5 q 0,-3.92 1.9,-5.71 1.91,-1.79 6.05,-1.79 v 0 q 8.17,0 8.17,7.5 v 0 11.2 q 0,13.88 -0.78,16.57 v 0 q 2.91,-2.91 6.27,-4.03 3.36,-1.12 8.85,-1.12 v 0 h 10.97 v -22.62 q 0,-3.92 1.9,-5.71 1.91,-1.79 6.05,-1.79 v 0 q 8.17,0 8.17,7.5 v 0 65.5 q 0,3.81 -1.84,5.66 -1.85,1.84 -5.99,1.84 v 0 q -8.29,0 -8.29,-7.5 v 0 -33.14 q -0.67,2.01 -4.37,3.3 -3.69,1.29 -8.62,1.29 v 0 q -7.05,0 -9.68,2.85 -2.64,2.86 -2.64,10.47 v 0 15.23 q 0,3.81 -1.84,5.66 -1.85,1.84 -5.99,1.84 z m 87.11,0 v 0 q -11.98,0 -18.92,-6.83 -6.94,-6.83 -6.94,-22.05 v 0 q 0,-15.35 6.94,-22.12 6.94,-6.77 18.92,-6.77 v 0 q 11.98,0 18.92,6.77 6.95,6.77 6.95,22.12 v 0 q 0,15.22 -6.95,22.05 -6.94,6.83 -18.92,6.83 z m 0,-13.43 v 0 q 3.14,0 5.26,-1.29 2.13,-1.29 3.31,-4.65 1.17,-3.36 1.17,-9.51 v 0 q 0,-6.16 -1.17,-9.52 -1.18,-3.36 -3.31,-4.65 -2.12,-1.29 -5.26,-1.29 v 0 q -3.02,0 -5.21,1.29 -2.18,1.29 -3.36,4.65 -1.17,3.36 -1.17,9.52 v 0 q 0,6.15 1.17,9.51 1.18,3.36 3.36,4.65 2.19,1.29 5.21,1.29 z m 44.68,13.43 v 0 q -8.06,0 -8.06,-7.61 v 0 -26.87 q 0,-10.75 6.88,-17.02 6.89,-6.27 18.2,-6.27 v 0 q 11.31,0 18.19,6.27 6.89,6.27 6.89,17.02 v 0 26.87 q 0,7.61 -8.06,7.61 v 0 q -8.06,0 -8.06,-7.61 v 0 -25.98 q 0,-5.26 -2.36,-8 -2.35,-2.75 -6.6,-2.75 v 0 q -4.26,0 -6.61,2.75 -2.35,2.74 -2.35,8 v 0 25.98 q 0,7.61 -8.06,7.61 z m 78.71,0 v 0 q -11.98,0 -18.92,-6.83 -6.94,-6.83 -6.94,-22.05 v 0 q 0,-15.35 6.94,-22.12 6.94,-6.77 18.92,-6.77 v 0 q 11.99,0 18.93,6.77 6.94,6.77 6.94,22.12 v 0 q 0,15.22 -6.94,22.05 -6.94,6.83 -18.93,6.83 z m 0,-13.43 v 0 q 3.14,0 5.27,-1.29 2.12,-1.29 3.3,-4.65 1.18,-3.36 1.18,-9.51 v 0 q 0,-6.16 -1.18,-9.52 -1.18,-3.36 -3.3,-4.65 -2.13,-1.29 -5.27,-1.29 v 0 q -3.02,0 -5.2,1.29 -2.19,1.29 -3.36,4.65 -1.18,3.36 -1.18,9.52 v 0 q 0,6.15 1.18,9.51 1.17,3.36 3.36,4.65 2.18,1.29 5.2,1.29 z"
   id="path9" />
<path
   fill="#1e5a96"
   opacity="1"
   d="m 473.67,606.87 h -17.92 l 0.11,-0.56 h 0.17 q 2.02,0 3.25,-1.23 1.23,-1.24 1.23,-3.25 v 0 -31.91 q 0,-2.02 -1.23,-3.25 -1.23,-1.23 -3.25,-1.23 v 0 l -0.05,-0.56 h 29.95 l 1.68,11.31 H 487.1 Q 485.43,565.6 473.78,565.6 v 0 h -4.65 v 16.86 h 4.37 q 2.8,0 4.48,-1.77 1.68,-1.76 1.68,-4.56 v 0 h 0.56 v 14 h -0.56 q 0,-3.03 -1.85,-4.99 -1.85,-1.96 -4.87,-1.96 v 0 h -3.81 v 19.1 q 0,1.84 1.29,2.94 1.29,1.09 3.19,1.09 v 0 z m 23.79,0.67 v 0 q -3.86,0 -6.86,-1.91 -2.99,-1.9 -4.67,-5.29 -1.68,-3.38 -1.68,-7.75 v 0 q 0,-4.48 1.85,-7.84 1.84,-3.36 5.06,-5.23 3.22,-1.88 7.31,-1.88 v 0 q 3.42,0 6.07,1.35 2.66,1.34 4.26,3.77 1.6,2.44 1.82,5.63 v 0 l 0.06,0.84 h -18.82 v 0.28 q 0,5.94 2.64,9.49 2.63,3.56 7.05,3.56 v 0 q 2.69,0 5.12,-1.32 2.44,-1.32 3.95,-3.56 v 0 l 0.5,0.17 q -0.95,2.86 -2.96,5.04 -2.02,2.19 -4.76,3.42 -2.75,1.23 -5.94,1.23 z m -5.54,-19.15 v 0 h 11.36 q 0,-4.42 -1.42,-7.17 -1.43,-2.74 -4.01,-2.74 v 0 q -2.46,0 -4.08,2.69 -1.63,2.69 -1.85,7.22 z m 28.44,19.26 v 0 q -3.41,0 -5.49,-1.85 -2.07,-1.84 -2.07,-4.87 v 0 q 0,-1.29 0.45,-2.43 0.45,-1.15 1.68,-2.27 v 0 q 1.29,-1.12 3.53,-2.32 2.24,-1.21 5.93,-2.55 v 0 l 5.21,-1.91 v -4.19 q 0,-3.2 -1.01,-5.07 -1.01,-1.88 -2.8,-1.88 v 0 q -2.13,0.06 -3.61,2.8 -1.48,2.75 -1.99,7.62 v 0 l -6.04,-3.47 q 0.95,-2.3 2.91,-4.04 1.96,-1.73 4.5,-2.68 2.55,-0.95 5.35,-0.95 v 0 q 4.76,0 7.76,2.66 2.99,2.65 2.99,7.25 v 0 13.49 q 0,3.25 2.18,3.25 v 0 q 1.29,0 2.52,-1.4 v 0 l 0.45,0.39 q -1.45,1.96 -3.53,3.19 -2.07,1.23 -4.03,1.23 v 0 q -2.12,0 -3.66,-1.46 -1.54,-1.45 -1.94,-3.86 v 0 q -2.74,2.8 -4.78,4.06 -2.05,1.26 -4.51,1.26 z m 4.2,-3.47 v 0 q 1.23,0 2.38,-0.62 1.15,-0.61 2.6,-2.01 v 0 l 0.06,-11.37 -2.24,0.84 q -2.86,1.07 -4.37,2.16 -1.51,1.09 -2.1,2.43 -0.59,1.35 -0.59,3.08 v 0 q 0,2.41 1.21,3.95 1.2,1.54 3.05,1.54 z m 27.26,3.47 v 0 q -2.91,0 -4.75,-1.85 -1.85,-1.84 -1.85,-4.81 v 0 -21.56 h -4.76 v -0.72 q 3.86,-0.28 6.91,-2.47 3.06,-2.18 5.01,-5.88 v 0 h 0.9 v 8.07 h 7.45 l -0.56,1 h -6.89 v 20.33 q 0,4.48 3.02,4.48 v 0 q 1.01,0 2.33,-0.62 1.31,-0.62 2.49,-1.62 v 0 0.56 q -1.85,2.35 -4.37,3.72 -2.52,1.37 -4.93,1.37 z m 25.76,-0.78 h -17.13 v -0.56 q 1.96,0 2.94,-0.82 0.98,-0.81 1.28,-2.09 0.31,-1.29 0.31,-2.8 v 0 -30.68 q 0,-2.02 -1.26,-3.25 -1.26,-1.23 -3.27,-1.23 v 0 -0.56 h 5.71 q 2.85,0 4.36,-0.62 v 0 q 1.4,-0.61 1.96,-1.51 v 0 h 0.56 v 21.27 q 1.52,-2.96 4.43,-4.67 2.91,-1.71 6.21,-1.71 v 0 q 2.63,0 4.48,1.21 1.85,1.2 2.83,3.21 0.98,2.02 0.98,4.54 v 0 15.23 q 0,2.07 1.26,3.27 1.26,1.21 3.27,1.21 v 0 0.56 h -17.07 v -0.56 q 2.01,0 3.27,-1.21 1.26,-1.2 1.26,-3.27 v 0 -15.79 q 0,-1.23 -0.34,-2.66 -0.33,-1.43 -1.2,-2.46 -0.87,-1.04 -2.43,-1.04 v 0 q -1.46,0 -2.78,0.87 -1.31,0.87 -2.37,2.15 -1.07,1.29 -1.8,2.58 v 0 15.12 q 0,1.51 0.31,2.8 0.31,1.28 1.29,2.09 0.98,0.82 2.94,0.82 v 0 z m 32.41,0.67 v 0 q -3.86,0 -6.85,-1.91 -3,-1.9 -4.68,-5.29 -1.68,-3.38 -1.68,-7.75 v 0 q 0,-4.48 1.85,-7.84 1.85,-3.36 5.07,-5.23 3.22,-1.88 7.3,-1.88 v 0 q 3.42,0 6.08,1.35 2.66,1.34 4.25,3.77 1.6,2.44 1.82,5.63 v 0 l 0.06,0.84 H 604.4 v 0.28 q 0,5.94 2.63,9.49 2.63,3.56 7.05,3.56 v 0 q 2.69,0 5.12,-1.32 2.44,-1.32 3.95,-3.56 v 0 l 0.51,0.17 q -0.96,2.86 -2.97,5.04 -2.02,2.19 -4.76,3.42 -2.74,1.23 -5.94,1.23 z m -5.54,-19.15 v 0 h 11.37 q 0,-4.42 -1.43,-7.17 -1.43,-2.74 -4,-2.74 v 0 q -2.47,0 -4.09,2.69 -1.62,2.69 -1.85,7.22 z m 36.62,18.48 h -17.14 v -0.56 h 0.06 q 2.02,0 3.25,-1.23 1.23,-1.24 1.23,-3.25 v 0 -18.37 q 0,-2.12 -0.87,-3.3 -0.87,-1.17 -3.67,-1.17 v 0 -0.56 h 5.55 q 2.96,0 4.48,-0.59 1.51,-0.59 2.12,-1.54 v 0 h 0.28 l 0.06,9.18 q 0.73,-1.68 1.88,-3.53 1.14,-1.84 2.91,-3.1 1.76,-1.26 4.22,-1.26 v 0 q 0.84,0 1.8,0.16 0.95,0.17 2.01,0.62 v 0 l -2.18,6.55 q -2.02,-1.12 -3.5,-1.57 -1.49,-0.45 -2.61,-0.45 v 0 q -1.9,0 -2.82,1.18 -0.93,1.18 -1.6,2.8 v 0 14.95 q 0,2.01 1.23,3.25 1.24,1.23 3.25,1.23 v 0 h 0.06 z m 19.31,0.78 v 0 q -1.45,0 -2.18,-0.11 -0.73,-0.11 -1.37,-0.28 -0.65,-0.17 -1.71,-0.28 -1.06,-0.11 -3.25,-0.11 v 0 l -1.34,-10.53 h 0.73 q 0.89,5.26 3.36,7.92 2.46,2.66 5.37,2.66 v 0 q 2.86,0 4.34,-1.17 1.48,-1.18 1.48,-3.19 v 0 q 0,-1.29 -0.64,-2.27 -0.65,-0.98 -2.21,-2.02 -1.57,-1.03 -4.26,-2.49 v 0 l -1.62,-0.89 q -3.08,-1.74 -4.56,-4.06 -1.49,-2.33 -1.49,-5.01 v 0 q 0,-3.81 2.77,-5.99 2.77,-2.19 7.42,-2.19 v 0 q 1.18,0 1.91,0.11 0.72,0.12 1.39,0.28 0.68,0.17 1.68,0.28 1.01,0.12 2.69,0.12 v 0 l 0.79,9.01 H 669 q -0.33,-2.63 -1.48,-4.68 -1.15,-2.04 -2.72,-3.19 -1.56,-1.14 -3.19,-1.14 v 0 q -2.12,0 -3.38,1.12 -1.26,1.12 -1.26,3.13 v 0 q 0,1.51 0.98,2.77 0.98,1.26 3.78,2.72 v 0 l 1.68,0.84 q 3.91,2.01 5.71,4.2 1.79,2.18 1.79,5.59 v 0 q 0,8.74 -10.53,8.85 z"
   id="path10" />
<path
   fill="#238bca"
   opacity="1"
   d="M 710.87,452.99 H 679.8 l 0.06,-0.56 h 0.05 q 2.02,0 3.25,-1.07 1.23,-1.06 1.23,-3.07 v 0 -32.25 q 0,-2.02 -1.23,-3.25 -1.23,-1.23 -3.25,-1.23 v 0 L 679.86,411 h 30 l 1.68,11.25 h -0.56 q -1.68,-10.52 -13.26,-10.52 v 0 h -4.71 v 16.18 h 5.04 q 2.8,0 4.48,-1.71 1.68,-1.71 1.68,-4.51 v 0 h 0.56 v 13.77 h -0.56 q -0.06,-3.02 -1.9,-4.92 -1.85,-1.91 -4.87,-1.91 v 0 h -4.43 v 19.66 q 0,3.97 3.92,3.97 v 0 h 2.35 q 5.43,0 8.63,-2.8 3.19,-2.8 4.08,-8.79 v 0 h 0.56 z m 19.15,0 h -17.13 v -0.56 q 2.01,0 3.27,-1.21 1.26,-1.2 1.26,-3.27 v 0 -31.91 q 0,-2.02 -1.26,-3.25 -1.26,-1.23 -3.27,-1.23 v 0 -0.56 h 5.71 q 2.85,0 4.37,-0.62 v 0 q 1.39,-0.61 1.95,-1.51 v 0 h 0.56 v 39.08 q 0,2.07 1.26,3.27 1.26,1.21 3.28,1.21 v 0 z m -0.28,12.54 v 0 q -2.3,0 -4.42,-0.9 v 0 l 2.18,-6.55 q 1.4,0.56 3.05,0.95 1.65,0.4 3.33,0.4 v 0 q 2.13,0 4.01,-0.87 1.87,-0.87 2.82,-3.22 v 0 l 0.62,-1.51 -11.09,-25.7 q -0.56,-1.34 -1.48,-2.16 -0.92,-0.81 -2.55,-0.86 v 0 -0.56 h 16.18 v 0.56 q -1.51,0.16 -2.32,1.06 -0.81,0.9 -0.81,2.3 v 0 q 0,1.23 0.56,2.52 v 0 l 5.65,13.26 5.66,-13.26 q 0.56,-1.29 0.56,-2.52 v 0 q 0,-1.4 -0.82,-2.3 -0.81,-0.9 -2.38,-1.06 v 0 -0.56 h 7.73 v 0.56 q -1.29,0.28 -2.18,1.65 -0.9,1.37 -1.91,3.72 v 0 l -11.42,26.54 q -1.79,4.14 -4.64,6.33 -2.86,2.18 -6.33,2.18 z m 35.72,-11.76 v 0 q -1.46,0 -2.18,-0.11 -0.73,-0.11 -1.38,-0.28 -0.64,-0.17 -1.7,-0.28 -1.07,-0.11 -3.25,-0.11 v 0 l -1.34,-10.53 h 0.72 q 0.9,5.27 3.36,7.92 2.47,2.66 5.38,2.66 v 0 q 2.85,0 4.34,-1.17 1.48,-1.18 1.48,-3.19 v 0 q 0,-1.29 -0.64,-2.27 -0.65,-0.98 -2.22,-2.02 -1.56,-1.03 -4.25,-2.49 v 0 l -1.62,-0.89 q -3.08,-1.74 -4.57,-4.06 -1.48,-2.33 -1.48,-5.01 v 0 q 0,-3.81 2.77,-5.99 2.77,-2.19 7.42,-2.19 v 0 q 1.17,0 1.9,0.12 0.73,0.11 1.4,0.28 0.67,0.16 1.68,0.28 1.01,0.11 2.69,0.11 v 0 l 0.78,9.01 h -0.67 q -0.34,-2.63 -1.48,-4.67 -1.15,-2.05 -2.72,-3.2 -1.57,-1.14 -3.19,-1.14 v 0 q -2.13,0 -3.39,1.12 -1.26,1.12 -1.26,3.13 v 0 q 0,1.51 0.98,2.77 0.98,1.26 3.78,2.72 v 0 l 1.68,0.84 q 3.92,2.01 5.71,4.2 1.79,2.18 1.79,5.6 v 0 q 0,8.73 -10.52,8.84 z m 28.55,-0.78 h -17.13 v -0.56 h 0.06 q 2.01,0 3.24,-1.23 1.23,-1.24 1.23,-3.25 v 0 -18.36 q 0,-2.13 -0.86,-3.31 -0.87,-1.17 -3.67,-1.17 v 0 -0.56 h 5.71 q 2.86,0 4.37,-0.62 v 0 q 1.4,-0.61 1.96,-1.51 v 0 h 0.56 v 25.53 q 0,2.01 1.23,3.25 1.23,1.23 3.25,1.23 v 0 h 0.05 z m -8.62,-34.1 v 0 q -2.02,0 -3.33,-1.31 -1.32,-1.32 -1.32,-3.33 v 0 q 0,-2.02 1.32,-3.34 1.31,-1.31 3.33,-1.31 v 0 q 1.96,0 3.27,1.34 1.32,1.35 1.32,3.31 v 0 q 0,1.96 -1.32,3.3 -1.31,1.34 -3.27,1.34 z m 17.02,34.88 v 0 q -3.42,0 -5.49,-1.85 -2.07,-1.84 -2.07,-4.87 v 0 q 0,-1.28 0.45,-2.43 0.45,-1.15 1.68,-2.27 v 0 q 1.29,-1.12 3.53,-2.32 2.24,-1.21 5.93,-2.55 v 0 l 5.21,-1.9 v -4.2 q 0,-3.19 -1.01,-5.07 -1.01,-1.87 -2.8,-1.87 v 0 q -2.13,0.05 -3.61,2.79 -1.48,2.75 -1.99,7.62 v 0 l -6.04,-3.47 q 0.95,-2.3 2.91,-4.03 1.96,-1.74 4.5,-2.69 2.55,-0.95 5.35,-0.95 v 0 q 4.76,0 7.75,2.66 3,2.66 3,7.25 v 0 13.49 q 0,3.25 2.18,3.25 v 0 q 1.29,0 2.52,-1.4 v 0 l 0.45,0.39 q -1.46,1.96 -3.53,3.19 -2.07,1.23 -4.03,1.23 v 0 q -2.13,0 -3.67,-1.45 -1.53,-1.46 -1.93,-3.87 v 0 q -2.74,2.8 -4.78,4.06 -2.05,1.26 -4.51,1.26 z m 4.2,-3.47 v 0 q 1.23,0 2.38,-0.62 1.15,-0.61 2.6,-2.01 v 0 l 0.06,-11.37 -2.24,0.84 q -2.86,1.07 -4.37,2.16 -1.51,1.09 -2.1,2.43 -0.59,1.35 -0.59,3.08 v 0 q 0,2.41 1.21,3.95 1.2,1.54 3.05,1.54 z"
   id="path11"
   style="fill:#46bcc0;fill-opacity:1" />
<path
   fill="#3fa8e0"
   opacity="1"
   d="m 493.36871,428.63964 -2.99563,2.52836 -24.55475,-29.09276 17.28601,-14.58967 2.34776,2.78166 -14.29038,12.0613 8.73961,10.3548 13.86243,-11.70012 2.38001,2.81987 -13.86243,11.70011 z m 20.70194,-17.47277 -2.99563,2.52836 -15.88609,-18.82203 2.99563,-2.52836 3.1024,3.67576 q -0.77727,-2.05272 -0.81595,-3.52493 -0.031,-1.47866 0.55992,-2.59247 0.59215,-1.1279 1.61617,-1.99218 v 0 q 0.4738,-0.3999 1.04028,-0.72099 0.56767,-0.33518 1.17621,-0.4824 v 0 l 3.283,3.88974 q -0.90545,-0.034 -1.66326,0.19992 -0.7578,0.23395 -1.35387,0.73704 v 0 q -1.37555,1.16098 -1.56395,2.9688 -0.19605,1.81427 0.51385,3.74065 0.70989,1.92638 2.04502,3.50826 v 0 z m 20.23515,-16.56844 v 0 q -2.8275,2.38646 -6.18382,3.13862 -3.36277,0.74451 -6.63409,-0.26313 -3.26368,-1.01409 -5.75979,-3.97151 v 0 q -2.30907,-2.73581 -2.86393,-6.07544 -0.54723,-3.34608 0.55428,-6.55269 1.10797,-3.19897 3.84377,-5.50803 v 0 q 2.65175,-2.23812 5.99902,-2.79943 3.34608,-0.54723 6.5522,0.47618 3.21257,1.03106 5.45069,3.6828 v 0 l 1.01263,1.19978 -17.79802,15.02181 -2.34776,-2.78166 14.63427,-12.35155 q -2.32562,-1.70114 -5.42744,-1.6087 -3.11591,0.0912 -5.55368,2.14876 v 0 q -2.00982,1.69632 -2.73077,3.92745 -0.71977,2.21703 -0.22118,4.54422 0.49858,2.32719 2.1949,4.33701 v 0 q 1.65763,1.96398 3.88062,2.61328 2.23709,0.65049 4.46444,0.15766 2.21972,-0.48639 3.93151,-1.93117 v 0 q 1.32969,-1.12228 2.20915,-2.3749 0.8871,-1.25907 1.34689,-2.66782 0.44569,-1.40995 0.42419,-3.00134 v 0 l 3.85632,-0.0357 q 0.0727,1.99311 -0.5382,4.01357 -0.60324,2.014 -1.72696,3.72141 -1.11727,1.71505 -2.56924,2.94053 z m 19.55334,-16.05841 v 0 q -2.17794,1.83822 -4.27868,2.51208 -2.10839,0.68031 -4.15128,0.16688 -2.04288,-0.51343 -4.01214,-2.14895 v 0 l 3.16375,-2.67026 q 1.39522,0.95539 2.66923,1.1625 1.27401,0.20712 2.4273,-0.25593 1.14565,-0.45661 2.26137,-1.39829 v 0 q 2.05568,-1.73502 2.42825,-3.37114 0.37903,-1.62848 -0.92385,-3.17215 v 0 q -0.76109,-0.90174 -2.06111,-0.96913 -1.30647,-0.075 -3.19773,0.72299 v 0 q -0.82252,0.32782 -2.0047,0.88068 -1.17572,0.5605 -2.41953,1.08686 -1.22971,0.52755 -2.33764,0.87381 v 0 q -1.86384,0.47391 -3.52289,0.12068 -1.65904,-0.35323 -2.89097,-1.81283 v 0 q -1.62537,-1.92576 -1.74201,-3.98647 -0.12428,-2.05425 0.87402,-3.95677 0.99066,-1.89608 2.7483,-3.37955 v 0 q 2.65174,-2.23812 5.40933,-2.70739 2.75639,-0.45518 5.85573,1.9146 v 0 l -3.20197,2.7025 q -1.13771,-0.72781 -2.13346,-0.86881 -1.0022,-0.14864 -1.95105,0.24655 -0.94886,0.39519 -1.97287,1.25947 v 0 q -1.28385,1.08359 -1.88287,2.54443 -0.59903,1.46085 0.5555,2.82875 v 0 q 1.15454,1.3679 2.58468,1.15535 1.4237,-0.22019 2.73796,-0.74059 v 0 q 0.6293,-0.30868 1.79213,-0.88447 1.16283,-0.57579 2.50359,-1.15781 1.34076,-0.58203 2.4733,-0.88362 v 0 q 2.03245,-0.53771 3.69367,-0.0424 1.67531,0.49653 2.93949,1.99434 v 0 q 1.76727,2.09389 1.86147,4.25204 0.0942,2.15815 -1.07222,4.20258 -1.16642,2.04442 -3.2221,3.77944 z m 14.03351,-12.79976 -2.99563,2.52836 -27.08311,-32.0884 2.99563,-2.52836 13.93822,16.51418 q -0.39468,-2.29711 0.19013,-4.59653 0.59125,-2.29177 2.69278,-4.06549 v 0 q 2.34606,-1.98012 4.69309,-2.37768 2.33294,-0.39875 4.53378,0.5964 2.19964,1.00924 4.10881,3.27125 v 0 l 9.93284,11.76855 -2.99563,2.52835 -9.93284,-11.76854 q -0.93523,-1.10808 -2.12048,-1.8612 -1.1917,-0.76076 -2.52061,-0.73835 -1.33655,0.0289 -2.70445,1.1834 v 0 q -2.30786,1.94787 -2.88957,4.12691 -0.58172,2.17904 0.34368,4.57781 0.93186,2.40642 3.16997,5.05817 v 0 z"
   id="path12" />
<path
   fill="#61b44b"
   opacity="1"
   d="m 778.24,357.38 h -17.13 v -0.56 q 1.96,0 2.94,-0.81 0.98,-0.81 1.29,-2.1 0.31,-1.29 0.31,-2.8 v 0 -30.68 q 0,-2.02 -1.26,-3.25 -1.26,-1.23 -3.28,-1.23 v 0 -0.56 h 5.71 q 2.86,0 4.37,-0.62 v 0 q 1.4,-0.61 1.96,-1.51 v 0 h 0.56 v 21.28 q 1.51,-2.97 4.42,-4.68 2.91,-1.7 6.22,-1.7 v 0 q 2.63,0 4.48,1.2 1.84,1.2 2.82,3.22 0.98,2.01 0.98,4.53 v 0 15.23 q 0,2.07 1.26,3.28 1.26,1.2 3.28,1.2 v 0 0.56 h -17.08 v -0.56 q 2.02,0 3.28,-1.2 1.26,-1.21 1.26,-3.28 v 0 -15.79 q 0,-1.23 -0.34,-2.66 -0.34,-1.42 -1.2,-2.46 -0.87,-1.04 -2.44,-1.04 v 0 q -1.45,0 -2.77,0.87 -1.32,0.87 -2.38,2.16 -1.06,1.29 -1.79,2.57 v 0 15.12 q 0,1.51 0.31,2.8 0.3,1.29 1.28,2.1 0.98,0.81 2.94,0.81 v 0 z m 26.65,0.78 v 0 q -3.41,0 -5.48,-1.84 -2.07,-1.85 -2.07,-4.87 v 0 q 0,-1.29 0.44,-2.44 0.45,-1.15 1.68,-2.27 v 0 q 1.29,-1.12 3.53,-2.32 2.24,-1.2 5.93,-2.55 v 0 l 5.21,-1.9 v -4.2 q 0,-3.19 -1.01,-5.07 -1,-1.87 -2.8,-1.87 v 0 q -2.12,0.05 -3.61,2.8 -1.48,2.74 -1.98,7.61 v 0 l -6.05,-3.47 q 0.95,-2.3 2.91,-4.03 1.96,-1.74 4.51,-2.69 2.54,-0.95 5.34,-0.95 v 0 q 4.76,0 7.76,2.66 2.99,2.66 2.99,7.25 v 0 13.49 q 0,3.25 2.19,3.25 v 0 q 1.28,0 2.52,-1.4 v 0 l 0.44,0.39 q -1.45,1.96 -3.52,3.19 -2.07,1.23 -4.03,1.23 v 0 q -2.13,0 -3.67,-1.45 -1.54,-1.46 -1.93,-3.86 v 0 q -2.75,2.79 -4.79,4.05 -2.04,1.26 -4.51,1.26 z m 4.2,-3.47 v 0 q 1.23,0 2.38,-0.61 1.15,-0.62 2.61,-2.02 v 0 l 0.05,-11.36 -2.24,0.84 q -2.85,1.06 -4.37,2.15 -1.51,1.09 -2.09,2.44 -0.59,1.34 -0.59,3.08 v 0 q 0,2.4 1.2,3.94 1.2,1.54 3.05,1.54 z m 32.98,14.45 h -17.13 v -0.56 h 0.05 q 2.02,0 3.25,-1.23 1.23,-1.24 1.23,-3.25 v 0 -30.12 q -0.05,-2.47 -1.06,-3.47 -1.01,-1.01 -3.47,-1.01 v 0 -0.56 h 5.54 q 3.3,0 4.53,-0.62 1.24,-0.61 1.8,-1.51 v 0 h 0.56 l 0.05,7.17 q 1.29,-2.52 3.92,-4.2 2.63,-1.68 5.54,-1.68 v 0 q 3.14,0 5.55,1.9 2.4,1.91 3.77,5.18 1.38,3.28 1.38,7.53 v 0 q 0,4.7 -1.68,8.18 -1.68,3.47 -4.73,5.37 -3.06,1.9 -7.25,1.9 v 0 q -2.3,0 -3.76,-0.7 -1.45,-0.7 -2.63,-2.32 v 0 8.96 q 0,2.01 1.23,3.25 1.24,1.23 3.25,1.23 v 0 h 0.06 z m 0.67,-11.93 v 0 q 3.02,0 4.59,-3.75 v 0 q 1.51,-3.81 1.51,-10.92 v 0 q 0,-12.2 -4.92,-12.2 v 0 q -1.91,0 -3.76,1.51 -1.84,1.51 -2.63,3.7 v 0 13.04 q 0,4.03 1.4,6.33 1.4,2.29 3.81,2.29 z m 32.81,0.17 h -17.13 v -0.56 h 0.05 q 2.02,0 3.25,-1.23 1.23,-1.23 1.23,-3.25 v 0 -18.36 q 0,-2.13 -0.87,-3.31 -0.86,-1.17 -3.66,-1.17 v 0 -0.56 h 5.71 q 2.85,0 4.36,-0.62 v 0 q 1.4,-0.61 1.96,-1.51 v 0 h 0.56 v 25.53 q 0,2.02 1.23,3.25 1.24,1.23 3.25,1.23 v 0 h 0.06 z m -8.62,-34.1 v 0 q -2.02,0 -3.34,-1.31 -1.31,-1.32 -1.31,-3.33 v 0 q 0,-2.02 1.31,-3.33 1.32,-1.32 3.34,-1.32 v 0 q 1.96,0 3.27,1.34 1.32,1.35 1.32,3.31 v 0 q 0,1.96 -1.32,3.3 -1.31,1.34 -3.27,1.34 z"
   id="path13"
   style="fill:#69b978;fill-opacity:1" />
<path
   fill="#3b7bbe"
   opacity="1"
   d="m 264.37,395.96 h -3.92 v -38.08 h 3.92 v 17.86 l 12.82,-17.86 h 5.04 l -14,19.04 14,19.04 h -5.04 L 264.37,378.1 Z m 31.85,0.39 v 0 q -3.52,0 -6.46,-1.71 -2.94,-1.71 -4.68,-4.62 -1.73,-2.91 -1.73,-6.49 v 0 q 0,-3.59 1.73,-6.5 1.74,-2.91 4.65,-4.64 2.91,-1.74 6.49,-1.74 v 0 q 3.59,0 6.5,1.74 2.91,1.73 4.64,4.64 1.74,2.91 1.74,6.5 v 0 q 0,3.58 -1.74,6.49 -1.73,2.91 -4.67,4.62 -2.94,1.71 -6.47,1.71 z m 0,-3.92 v 0 q 2.47,0 4.51,-1.21 2.04,-1.2 3.25,-3.21 1.2,-2.02 1.2,-4.48 v 0 q 0,-2.52 -1.2,-4.54 -1.21,-2.01 -3.22,-3.22 -2.02,-1.2 -4.54,-1.2 v 0 q -2.46,0 -4.5,1.2 -2.05,1.21 -3.25,3.22 -1.21,2.02 -1.21,4.54 v 0 q 0,2.46 1.21,4.48 1.2,2.01 3.25,3.21 2.04,1.21 4.5,1.21 z m 28.78,4.09 v 0 q -3.47,0 -6.19,-1.82 -2.71,-1.82 -4.25,-4.76 -1.54,-2.94 -1.54,-6.3 v 0 q 0,-3.42 1.54,-6.33 1.54,-2.91 4.25,-4.73 2.72,-1.82 6.19,-1.82 v 0 q 3.02,0 5.35,1.32 2.32,1.31 3.94,3.44 v 0 -4.2 h 3.92 v 24.64 h -3.92 v -4.2 q -1.06,1.4 -2.46,2.49 -1.4,1.09 -3.11,1.68 -1.7,0.59 -3.72,0.59 z m 0.62,-3.92 v 0 q 2.51,0 4.47,-1.26 1.96,-1.26 3.08,-3.31 1.12,-2.04 1.12,-4.39 v 0 q 0,-2.41 -1.12,-4.42 -1.12,-2.02 -3.08,-3.28 -1.96,-1.26 -4.47,-1.26 v 0 q -2.52,0 -4.48,1.26 -1.96,1.26 -3.08,3.28 -1.12,2.01 -1.12,4.42 v 0 q 0,2.35 1.12,4.39 1.12,2.05 3.08,3.31 1.96,1.26 4.48,1.26 z"
   id="path14" />
</svg>
