<?xml version="1.0" encoding="UTF-8"?>
<svg xmlns="http://www.w3.org/2000/svg" xmlns:xlink="http://www.w3.org/1999/xlink" viewBox="0 0 20 20">
  <defs>
    <style>
      .cls-1 {
        fill: #fff;
      }

      .cls-2 {
        fill: #3fa8e0;
      }
    </style>
    <symbol id="bg_caroline_blue" viewBox="0 0 19 19">
      <circle class="cls-2" cx="9.5" cy="9.5" r="9.5"/>
    </symbol>
  </defs>
  <g id="bg_caroline_blue-2" data-name="bg_caroline_blue">
    <use width="19" height="19" transform="translate(.5 .5)" xlink:href="#bg_caroline_blue"/>
  </g>
  <g id="icons_white">
    <g id="bluesky-social-media">
      <path class="cls-1" d="M8.02,15.56c-.41,0-.79-.15-1.09-.43-.68-.64-1.25-1.38-1.69-2.19-.23-.42-.26-.92-.07-1.36.17-.39.48-.69.88-.86-.91-.3-1.58-1.1-1.73-2.07-.09-.63-.15-1.14-.18-1.5-.02-.38-.02-.88,0-1.48.02-.42.23-.79.58-1.02.33-.22.73-.26,1.1-.11,2.29.9,3.53,2.55,4.18,3.8.65-1.25,1.89-2.9,4.18-3.8.37-.15.77-.11,1.1.11.34.22.56.6.58,1.01.03.61.03,1.11,0,1.49-.02.37-.08.87-.18,1.5-.15.97-.82,1.78-1.73,2.07.4.16.71.46.88.86.19.44.17.94-.07,1.36-.44.81-1.01,1.55-1.69,2.19-.35.33-.84.48-1.31.42-.5-.07-.93-.36-1.2-.79-.22-.36-.4-.72-.56-1.08-.16.37-.34.72-.56,1.08-.26.43-.7.72-1.2.79-.07,0-.15.01-.22.01ZM6.34,10.02c.45.13.91.24,1.36.33.18.04.3.19.3.37,0,.18-.13.33-.31.37-.41.08-.83.17-1.24.28-.27.07-.49.25-.6.5-.1.23-.09.48.04.71.41.74.93,1.42,1.55,2,.19.18.44.26.7.22.27-.04.51-.2.66-.43.38-.62.64-1.21.85-1.89.1-.32.62-.32.72,0,.21.68.47,1.27.85,1.89.14.24.38.4.66.43.26.04.51-.04.7-.22.62-.58,1.14-1.26,1.55-2,.12-.22.14-.48.04-.71-.11-.25-.32-.43-.6-.5-.41-.11-.83-.2-1.24-.28-.18-.03-.3-.19-.31-.37,0-.18.12-.33.3-.37.45-.09.91-.21,1.36-.33.67-.19,1.18-.78,1.28-1.49.09-.61.15-1.09.17-1.44.02-.35.02-.82,0-1.4,0-.17-.1-.33-.23-.42-.07-.05-.23-.12-.42-.04-2.54,1-3.66,3.03-4.1,4.15-.11.29-.58.29-.7,0-.44-1.12-1.56-3.15-4.1-4.15-.19-.08-.35,0-.42.04-.14.09-.23.25-.23.42-.03.58-.03,1.05,0,1.4.02.35.08.83.17,1.44.11.72.61,1.3,1.28,1.49h0Z"/>
    </g>
  </g>
</svg>