<?xml version="1.0" encoding="UTF-8"?>
<svg xmlns="http://www.w3.org/2000/svg" xmlns:xlink="http://www.w3.org/1999/xlink" viewBox="0 0 20 20">
  <defs>
    <style>
      .cls-1 {
        fill: #69b978;
      }

      .cls-2 {
        fill: #fff;
      }
    </style>
    <symbol id="bg_brilliant-green" viewBox="0 0 19 19">
      <circle class="cls-1" cx="9.5" cy="9.5" r="9.5"/>
    </symbol>
  </defs>
  <g id="bg_brilliant-green-2" data-name="bg_brilliant-green">
    <use width="19" height="19" transform="translate(.5 .5)" xlink:href="#bg_brilliant-green"/>
  </g>
  <g id="icons_white">
    <g>
      <path class="cls-2" d="M9.68,10.3h-5.26c-.21,0-.38-.17-.38-.38s.17-.38.38-.38h5.26c.21,0,.38.17.38.38s-.17.38-.38.38Z"/>
      <path class="cls-2" d="M6.9,15.64h-2.48c-.21,0-.38-.17-.38-.38v-5.34c0-.21.17-.38.38-.38s.38.17.38.38v4.96h1.73v-4.91c0-.21.17-.38.38-.38s.38.17.38.38v5.29c0,.21-.17.38-.38.38Z"/>
      <path class="cls-2" d="M7.59,8.62h-2.28c-.16,0-.31-.11-.36-.26l-.89-2.87c-.06-.2.05-.41.25-.47.2-.06.41.05.47.25l.81,2.6h2.01c.21,0,.38.17.38.38s-.17.38-.38.38Z"/>
      <path class="cls-2" d="M12.36,7.33c-.82,0-1.49-.67-1.49-1.49s.67-1.49,1.49-1.49,1.49.67,1.49,1.49-.67,1.49-1.49,1.49ZM12.36,5.11c-.41,0-.74.33-.74.74s.33.74.74.74.74-.33.74-.74-.33-.74-.74-.74Z"/>
      <path class="cls-2" d="M9.35,15.21c-.15,0-.31-.03-.48-.11-.3-.15-.52-.4-.61-.7-.08-.28-.05-.57.09-.82l.74-1.59c.38-.82,1.23-1.38,2.15-1.45v-.31c-.21.04-.43.06-.67.06h-1.29c-.61,0-1.12-.51-1.12-1.12s.51-1.12,1.12-1.12h.34c.67,0,1.3.01,1.59-.18l.55-.35c.32-.24.78-.27,1.14-.05.34.13.58.51.58.96v3.21c0,.61-.51,1.12-1.12,1.12h-.94c-.12,0-.25.08-.32.21l-.74,1.58s0,0,0,.01c-.17.35-.55.62-1,.62ZM11.41,11.29c-.7,0-1.36.41-1.64,1.02l-.75,1.62c-.07.12-.06.2-.04.26.03.1.11.18.21.24.27.12.44-.08.49-.17l.75-1.61c.23-.39.6-.61.98-.61h.94c.19,0,.37-.18.37-.37v-3.21c0-.14-.06-.25-.16-.29-.17-.09-.3-.06-.38,0l-.57.36c-.48.32-1.19.31-2,.31h-.33c-.19,0-.37.18-.37.36s.18.37.37.37h1.29c.34,0,.63-.05.9-.17.12-.05.25-.04.35.03.1.07.17.19.17.31v1.19c0,.21-.17.38-.38.38h-.2ZM10.01,14.41h0,0Z"/>
      <path class="cls-2" d="M13.9,12.77h-1.54c-.21,0-.38-.17-.38-.38s.17-.38.38-.38h1.54c.06,0,.11-.06.13-.14l.59-4.18c.09-.45.45-.77.87-.77h.1c.21,0,.38.17.38.38s-.17.38-.38.38h-.1c-.06,0-.11.06-.13.14l-.59,4.18c-.09.45-.45.77-.87.77Z"/>
      <path class="cls-2" d="M12.7,15.64c-.21,0-.38-.17-.38-.38v-2.87c0-.21.17-.38.38-.38s.38.17.38.38v2.87c0,.21-.17.38-.38.38Z"/>
      <path class="cls-2" d="M14.19,15.64h-3.23c-.21,0-.38-.17-.38-.38s.17-.38.38-.38h3.23c.21,0,.38.17.38.38s-.17.38-.38.38Z"/>
    </g>
  </g>
</svg>