<?xml version="1.0" encoding="UTF-8"?>
<svg xmlns="http://www.w3.org/2000/svg" xmlns:xlink="http://www.w3.org/1999/xlink" viewBox="0 0 20 20">
  <defs>
    <style>
      .cls-1 {
        fill: #69b978;
      }

      .cls-2 {
        fill: #fff;
      }
    </style>
    <symbol id="bg_brilliant-green" viewBox="0 0 19 19">
      <circle class="cls-1" cx="9.5" cy="9.5" r="9.5"/>
    </symbol>
  </defs>
  <g id="bg_brilliant-green-2" data-name="bg_brilliant-green">
    <use width="19" height="19" transform="translate(.5 .5)" xlink:href="#bg_brilliant-green"/>
  </g>
  <g id="icons_white">
    <g>
      <path class="cls-2" d="M5.97,15.88c-1.02,0-1.84-.83-1.84-1.84s.83-1.84,1.84-1.84,1.84.83,1.84,1.84-.83,1.84-1.84,1.84ZM5.97,12.94c-.6,0-1.09.49-1.09,1.09s.49,1.09,1.09,1.09,1.09-.49,1.09-1.09-.49-1.09-1.09-1.09Z"/>
      <path class="cls-2" d="M7.43,14.41c-.21,0-.38-.17-.38-.38V5.97c0-.6-.49-1.09-1.09-1.09s-1.09.49-1.09,1.09v8.07c0,.21-.17.38-.38.38s-.38-.17-.38-.38V5.97c0-1.02.83-1.84,1.84-1.84s1.84.83,1.84,1.84v8.07c0,.21-.17.38-.38.38Z"/>
      <path class="cls-2" d="M14.77,15.88H5.97c-.21,0-.38-.17-.38-.38s.17-.38.38-.38h8.8c.2,0,.36-.16.36-.36v-7.7c0-.2-.16-.36-.36-.36h-7.33c-.21,0-.38-.17-.38-.38s.17-.38.38-.38h7.33c.61,0,1.11.5,1.11,1.11v7.7c0,.61-.5,1.11-1.11,1.11Z"/>
      <path class="cls-2" d="M12.93,13.31h-2.93c-.21,0-.38-.17-.38-.38v-2.81c0-.21.17-.38.38-.38s.38.17.38.38v2.44h2.18v-2.44c0-.21.17-.38.38-.38s.38.17.38.38v2.81c0,.21-.17.38-.38.38Z"/>
      <path class="cls-2" d="M13.67,11.11c-.08,0-.17-.03-.24-.09l-1.96-1.63-1.96,1.63c-.16.13-.4.11-.53-.05s-.11-.4.05-.53l2.2-1.83c.14-.12.34-.12.48,0l2.2,1.83c.16.13.18.37.05.53-.07.09-.18.13-.29.13Z"/>
    </g>
  </g>
</svg>