<?xml version="1.0" encoding="UTF-8"?>
<svg xmlns="http://www.w3.org/2000/svg" xmlns:xlink="http://www.w3.org/1999/xlink" viewBox="0 0 20 20">
  <defs>
    <style>
      .cls-1 {
        fill: #fff;
      }

      .cls-2 {
        fill: #3fa8e0;
      }
    </style>
    <symbol id="bg_caroline_blue" viewBox="0 0 19 19">
      <circle class="cls-2" cx="9.5" cy="9.5" r="9.5"/>
    </symbol>
  </defs>
  <g id="bg_caroline_blue-2" data-name="bg_caroline_blue">
    <use width="19" height="19" transform="translate(.5 .5)" xlink:href="#bg_caroline_blue"/>
  </g>
  <g id="icons_white">
    <g>
      <path class="cls-1" d="M7.45,10.99c-.21,0-.38-.17-.38-.38v-2.46c.08-.88.84-1.51,1.69-1.46.79-.07,1.55.57,1.63,1.42v1.78c0,.21-.17.38-.37.38s-.38-.17-.38-.38v-1.75c-.04-.41-.44-.75-.88-.71-.5-.04-.9.3-.94.74v2.43c0,.21-.17.38-.37.38Z"/>
      <path class="cls-1" d="M12.58,10.99c-.21,0-.38-.17-.38-.38v-2.46c-.04-.41-.44-.75-.88-.71-.52-.04-.9.3-.94.74v1.71c0,.21-.17.38-.37.38s-.38-.17-.38-.38v-1.75c.08-.88.83-1.51,1.69-1.46.79-.07,1.55.57,1.63,1.42v2.5c0,.21-.17.38-.37.38Z"/>
      <path class="cls-1" d="M9.6,15.88c-.81,0-1.64-.11-2.32-.28-.84-.2-1.57-.73-2.02-1.47-.39-.8-.62-1.63-.7-2.48-.06-.47-.11-.96-.14-1.45-.03-.43-.04-.86-.04-1.29-.05-.83.05-1.68.31-2.49.41-1.08,1.36-1.86,2.48-2.05,1.23-.21,2.47-.28,3.71-.21h0c.92,0,1.86.15,2.75.44.88.39,1.51,1.12,1.76,2.02.37,1.14.24,2.32.11,3.47l-.02.21c-.35,3.21-5.16,2.72-6.74,2.56-.24-.02-.47-.06-.71-.1.08.47.33.89.76.96.68.07,1.38.09,2.08.07.14,0,.28-.02.41-.05.44-.09.88.19.97.62,0,.03.02.1.02.13.02.21-.06.89-.48,1.07-.62.25-1.4.36-2.19.36ZM9.97,4.88c-.9,0-1.8.08-2.68.23-.86.15-1.59.75-1.9,1.56-.22.7-.31,1.46-.27,2.22,0,.44.02.85.04,1.27h0c.03.47.07.94.13,1.41.07.78.28,1.51.61,2.21.33.54.89.95,1.54,1.1,1.22.31,3,.39,4.05-.04-.02-.02.03-.23.02-.31l-.16-.45.08.37c-.18.04-.36.06-.55.07-.73.03-1.47,0-2.2-.07-1.06-.16-1.49-1.23-1.44-2.17,0-.11.06-.21.14-.27.08-.07.19-.1.3-.08l.37.06c.25.04.51.09.76.12,2.43.25,5.68.33,5.92-1.89l.02-.21c.12-1.07.24-2.17-.09-3.17-.19-.69-.67-1.25-1.31-1.53-.79-.25-1.64-.39-2.51-.39-.3-.02-.59-.02-.88-.02Z"/>
    </g>
  </g>
</svg>