<?xml version="1.0" encoding="UTF-8"?>
<svg xmlns="http://www.w3.org/2000/svg" xmlns:xlink="http://www.w3.org/1999/xlink" viewBox="0 0 20 20">
  <defs>
    <style>
      .cls-1 {
        fill: #fff;
      }

      .cls-2 {
        fill: #1e5a96;
      }
    </style>
    <symbol id="bg_dark_blue" viewBox="0 0 19 19">
      <circle class="cls-2" cx="9.5" cy="9.5" r="9.5"/>
    </symbol>
  </defs>
  <g id="bg_dark_blue-2" data-name="bg_dark_blue">
    <use width="19" height="19" transform="translate(.5 .5)" xlink:href="#bg_dark_blue"/>
  </g>
  <g id="icons_white">
    <g>
      <path class="cls-1" d="M10,12.24c-.08,0-.16-.01-.23-.04-1.13-.44-1.89-1.55-1.89-2.76v-.79c0-.36.29-.64.64-.64h2.96c.36,0,.64.29.64.64v.79c0,1.23-.74,2.32-1.89,2.76h0c-.08.03-.15.04-.23.04ZM10.04,11.49h0,0ZM8.62,8.75v.68c0,.89.55,1.71,1.38,2.05.84-.34,1.38-1.14,1.38-2.05v-.68h-2.75Z"/>
      <path class="cls-1" d="M10,13.88h0c-2.24,0-4.06-1.82-4.06-4.07s1.82-4.07,4.07-4.07,4.07,1.82,4.07,4.07c0,2.24-1.83,4.07-4.07,4.07ZM10,6.5c-1.83,0-3.32,1.49-3.32,3.32s1.49,3.32,3.31,3.32h0c1.83,0,3.31-1.49,3.32-3.31,0-1.83-1.49-3.32-3.32-3.32Z"/>
      <path class="cls-1" d="M14.76,6.72c-.3,0-.58-.12-.79-.33-.21-.21-.33-.49-.32-.79,0-.61.5-1.11,1.11-1.11s1.11.5,1.11,1.11-.5,1.11-1.11,1.11ZM14.76,5.25c-.2,0-.36.16-.36.36h0c0,.1.04.19.11.26.21.21.62.04.62-.26,0-.2-.16-.36-.36-.36ZM14.03,5.61h0,0Z"/>
      <path class="cls-1" d="M5.24,6.72c-.61,0-1.11-.5-1.11-1.11s.5-1.11,1.11-1.11,1.11.5,1.11,1.11-.5,1.11-1.11,1.11ZM5.24,5.25c-.2,0-.36.16-.36.36s.16.36.36.36.36-.16.36-.36-.16-.36-.36-.36Z"/>
      <path class="cls-1" d="M7.33,14.41h-2.82c-.21,0-.38-.17-.38-.38s.17-.38.38-.38h2.62l.64-.91c.12-.17.35-.21.52-.09.17.12.21.35.09.52l-.75,1.06c-.07.1-.18.16-.31.16Z"/>
      <path class="cls-1" d="M15.5,14.41h-2.62c-.12,0-.24-.06-.31-.16l-.81-1.15c-.12-.17-.08-.4.09-.52.17-.12.4-.08.52.09l.7.99h2.42c.21,0,.38.17.38.38s-.17.38-.38.38Z"/>
      <path class="cls-1" d="M8.06,7.04c-.12,0-.23-.06-.31-.16l-.63-.89h-1.16c-.21,0-.38-.17-.38-.38s.17-.38.38-.38h1.35c.12,0,.24.06.31.16l.74,1.05c.12.17.08.4-.09.52-.07.05-.14.07-.21.07Z"/>
      <path class="cls-1" d="M11.94,7.05c-.07,0-.15-.02-.21-.07-.17-.12-.21-.35-.09-.52l.74-1.06c.07-.1.18-.16.31-.16h1.35c.21,0,.38.17.38.38s-.17.38-.38.38h-1.16l-.62.9c-.07.1-.19.16-.31.16Z"/>
      <path class="cls-1" d="M14.41,15.5c-.1,0-.19-.04-.27-.11-.15-.15-.15-.38,0-.53l.83-.82-.82-.82c-.15-.15-.15-.38,0-.53s.38-.15.53,0l1.09,1.09c.07.07.11.17.11.27s-.04.19-.11.27l-1.09,1.09c-.07.07-.17.11-.27.11Z"/>
      <path class="cls-1" d="M5.59,15.5c-.1,0-.19-.04-.27-.11l-1.09-1.09c-.07-.07-.11-.17-.11-.27s.04-.2.11-.27l1.09-1.09c.15-.15.38-.15.53,0s.15.38,0,.53l-.82.82.83.82c.15.15.15.38,0,.53-.07.07-.17.11-.27.11Z"/>
    </g>
  </g>
</svg>