<?xml version="1.0" encoding="UTF-8"?>
<svg xmlns="http://www.w3.org/2000/svg" xmlns:xlink="http://www.w3.org/1999/xlink" viewBox="0 0 20 20">
  <defs>
    <style>
      .cls-1 {
        fill: #fff;
      }

      .cls-2 {
        fill: #3fa8e0;
      }
    </style>
    <symbol id="bg_caroline_blue" viewBox="0 0 19 19">
      <circle class="cls-2" cx="9.5" cy="9.5" r="9.5"/>
    </symbol>
  </defs>
  <g id="bg_caroline_blue-2" data-name="bg_caroline_blue">
    <use width="19" height="19" transform="translate(.5 .5)" xlink:href="#bg_caroline_blue"/>
  </g>
  <g id="icons_white">
    <g>
      <path class="cls-1" d="M12,12.88c-.05,0-.1-.01-.15-.03,0,0-1-.44-1.69-.7-.28-.11-.48-.34-.55-.66-.1-.41.02-.91.28-1.2.4-.4.59-.93.53-1.47,0-.12,0-.17,0-.22,0-.3-.13-.57-.35-.78-.22-.21-.5-.32-.8-.31-.07,0-.11,0-.16,0-.62.06-1.07.61-1.01,1.22-.06.62.13,1.15.52,1.53.27.29.39.8.29,1.21-.08.32-.27.55-.55.66-.7.25-1.68.69-1.69.7-.19.08-.41,0-.5-.19-.08-.19,0-.41.19-.5.04-.02,1.02-.45,1.74-.71.03-.01.06-.06.08-.13.05-.2-.03-.44-.1-.52-.54-.53-.81-1.29-.73-2.06-.1-.95.66-1.87,1.69-1.97.08,0,.15,0,.23,0,.49-.01.96.17,1.32.51.36.34.57.81.59,1.31,0,.08,0,.15,0,.23.08.7-.19,1.45-.74,2-.06.06-.13.3-.08.5.02.07.05.12.08.13.71.26,1.69.7,1.74.71.19.08.27.31.19.5-.06.14-.2.22-.34.22Z"/>
      <path class="cls-1" d="M14,11.13c-.11,0-.21-.05-.28-.13l-1.75-2c-.14-.16-.12-.39.04-.53.16-.14.39-.12.53.04l1.43,1.63,1.23-1.84c.12-.17.35-.22.52-.1.17.11.22.35.1.52l-1.5,2.25c-.07.1-.17.16-.29.17,0,0-.02,0-.02,0Z"/>
      <path class="cls-1" d="M9.08,15.12s0,0-.01,0c-1.37-.05-2.64-.63-3.57-1.63-.93-1-1.42-2.31-1.37-3.68.1-2.82,2.5-5.05,5.31-4.93.14,0,.27.02.41.04,1.39.18,2.63.89,3.48,2.01.85,1.11,1.22,2.49,1.04,3.88-.03.21-.21.35-.42.32-.21-.03-.35-.22-.32-.42.16-1.19-.16-2.37-.89-3.33s-1.79-1.56-2.98-1.72c-.11-.02-.23-.03-.34-.03-2.4-.08-4.44,1.8-4.53,4.21-.04,1.17.37,2.28,1.17,3.14.8.86,1.88,1.35,3.05,1.4.21,0,.37.18.36.39,0,.2-.17.36-.38.36Z"/>
    </g>
  </g>
</svg>