<?xml version="1.0" encoding="UTF-8"?>
<svg xmlns="http://www.w3.org/2000/svg" xmlns:xlink="http://www.w3.org/1999/xlink" viewBox="0 0 20 20">
  <defs>
    <style>
      .cls-1 {
        fill: #fff;
      }

      .cls-2 {
        fill: #3b7bbe;
      }
    </style>
    <symbol id="bg_bright_navy_blue" viewBox="0 0 19 19">
      <circle class="cls-2" cx="9.5" cy="9.5" r="9.5"/>
    </symbol>
  </defs>
  <g id="bg_bright_navy_blue-2" data-name="bg_bright_navy_blue">
    <use width="19" height="19" transform="translate(.5 .5)" xlink:href="#bg_bright_navy_blue"/>
  </g>
  <g id="icons_white">
    <g>
      <path class="cls-1" d="M14.1,15.97H5.9c-.58,0-1.06-.5-1.06-1.12V5.15c0-.62.47-1.12,1.06-1.12h6.83c.28,0,.55.12.75.33l1.36,1.43c.2.21.31.5.31.79v8.26h0c0,.62-.47,1.12-1.06,1.12ZM5.9,4.78c-.17,0-.31.17-.31.37v9.7c0,.21.14.37.31.37h8.19c.17,0,.31-.17.31-.37V6.58c0-.11-.04-.21-.1-.28l-1.36-1.43c-.06-.06-.13-.1-.2-.1h-6.83Z"/>
      <path class="cls-1" d="M12.73,13.73h-5.46c-.21,0-.38-.17-.38-.38v-5.59c0-.21.17-.38.38-.38s.38.17.38.38v5.22h5.09c.21,0,.38.17.38.38s-.17.38-.38.38Z"/>
      <path class="cls-1" d="M7.27,12.24c-.09,0-.19-.04-.26-.11-.15-.14-.15-.38,0-.53l1.53-1.56c.49-.49,1.25-.48,1.74,0l.33.34c.11.11.25.16.39.14.15-.02.27-.1.36-.24l.71-1.21c.1-.18.33-.24.51-.13.18.1.24.33.13.51l-.72,1.22c-.21.34-.54.56-.91.6-.36.05-.74-.08-1.01-.36l-.33-.34c-.19-.19-.48-.19-.68,0l-1.53,1.56c-.07.08-.17.11-.27.11Z"/>
    </g>
  </g>
</svg>